<svg width="25" height="19" viewBox="0 0 25 19" fill="none" xmlns="http://www.w3.org/2000/svg">
<path d="M6.06562 18.0849C5.38206 18.4171 4.75694 18.4852 4.19026 18.2891C3.63078 18.0896 3.20593 17.6912 2.91572 17.094L2.48039 16.1982C2.33354 15.8959 2.18217 15.676 2.0263 15.5383C1.87762 15.397 1.71385 15.3254 1.53497 15.3234C1.3526 15.3142 1.14629 15.3655 0.916039 15.4774L0.297144 14.2038C0.527397 14.0919 0.696995 13.965 0.805937 13.8232C0.914879 13.6813 0.959771 13.5082 0.940611 13.3041C0.925151 13.0892 0.843992 12.8307 0.697136 12.5285L0.261811 11.6327C-0.0284052 11.0354 -0.077344 10.4588 0.114995 9.90287C0.311033 9.33619 0.750834 8.88676 1.4344 8.55459L2.11436 8.22416L2.79095 9.61647C2.32715 9.81517 2.02588 10.0372 1.88715 10.2825C1.75561 10.5243 1.77026 10.8107 1.9311 11.1417L2.293 11.8864C2.54126 12.3973 2.6094 12.8578 2.49742 13.268C2.39264 13.6747 2.18165 13.9818 1.86444 14.1893L1.89591 14.2541C2.25158 14.1257 2.62342 14.1496 3.01142 14.3257C3.40312 14.4912 3.7231 14.8293 3.97136 15.3402L4.3385 16.0957C4.49934 16.4267 4.71896 16.6224 4.99736 16.6828C5.27945 16.7325 5.64366 16.64 6.08998 16.4053L6.74559 17.7545L6.06562 18.0849Z" fill="#3EBAFF"/>
<path d="M8.14725 15.4056L4.42339 7.74251L6.77628 6.59913C7.63254 6.18303 8.37299 6.04113 8.99763 6.17342C9.62597 6.29502 10.1027 6.69041 10.4279 7.35958C10.5818 7.67618 10.6498 7.99001 10.6319 8.30109C10.6213 8.60868 10.5124 8.9062 10.3052 9.19367C10.1052 9.47765 9.79634 9.73892 9.3786 9.9775L9.34189 9.90195C9.85256 9.67158 10.31 9.56047 10.7142 9.56861C11.1221 9.56607 11.4698 9.66839 11.7573 9.87559C12.0485 10.0721 12.2832 10.3538 12.4615 10.7208C12.7972 11.4115 12.8133 12.0486 12.5097 12.6319C12.2133 13.2118 11.6226 13.7168 10.7376 14.1468L8.14725 15.4056ZM9.02981 13.2957L10.0823 12.7709C10.4636 12.5856 10.713 12.3665 10.8303 12.1138C10.9477 11.8611 10.9382 11.5945 10.8018 11.3138C10.655 11.0116 10.4406 10.8267 10.1587 10.7592C9.88051 10.6809 9.55433 10.7326 9.18017 10.9145L8.12244 11.4285L9.02981 13.2957ZM7.48257 10.1117L8.29205 9.71834C8.65182 9.54351 8.88494 9.33683 8.99139 9.09831C9.09435 8.8526 9.07765 8.58943 8.94129 8.30881C8.80492 8.02819 8.61008 7.85604 8.35676 7.79235C8.10345 7.72866 7.79691 7.78423 7.43714 7.95906L6.62766 8.35242L7.48257 10.1117Z" fill="white"/>
<path d="M16.1448 10.2117L12.8417 6.15994L13.0042 6.02761L15.763 11.7048L14.3599 12.3866L10.636 4.72351L12.3629 3.88433L15.9643 8.13807L15.5542 8.33737L14.4352 2.87731L16.1621 2.03813L19.8859 9.70124L18.4828 10.3831L15.724 4.7059L15.9285 4.65991L17.073 9.76068L16.1448 10.2117Z" fill="white"/>
<path d="M23.0197 9.84611L22.3398 10.1765L21.6842 8.8274C22.1445 8.6215 22.4386 8.39405 22.5667 8.14505C22.6984 7.88535 22.6839 7.59 22.523 7.25901L22.1559 6.50349C21.9076 5.99262 21.8359 5.53383 21.9407 5.12713C22.0492 4.70974 22.2638 4.40089 22.5845 4.20057L22.553 4.13581C22.201 4.25348 21.8292 4.2296 21.4375 4.06416C21.0458 3.89873 20.7258 3.56057 20.4775 3.0497L20.1156 2.30497C19.9548 1.97398 19.7351 1.78724 19.4565 1.74473C19.1851 1.69873 18.828 1.79666 18.3851 2.03853L17.7086 0.646219L18.3885 0.315792C19.0793 -0.0198805 19.7044 -0.0879495 20.2639 0.111585C20.8199 0.303923 21.243 0.698702 21.5332 1.29592L21.9685 2.19175C22.1154 2.49396 22.2649 2.71927 22.417 2.86768C22.5729 3.00541 22.7403 3.07528 22.9192 3.0773C23.098 3.07933 23.3026 3.02439 23.5329 2.9125L24.1518 4.18609C23.9215 4.29798 23.7537 4.42847 23.6482 4.57755C23.5393 4.71943 23.4908 4.8942 23.5027 5.10186C23.5219 5.30602 23.6049 5.5592 23.7518 5.86141L24.1871 6.75724C24.4773 7.35446 24.528 7.93465 24.3391 8.49783C24.1503 9.06101 23.7105 9.51044 23.0197 9.84611Z" fill="#3EBAFF"/>
</svg>
