<svg width="393" height="409" viewBox="0 0 393 409" fill="none" xmlns="http://www.w3.org/2000/svg">
<g clip-path="url(#clip0_2041_195)">
<path d="M-10.443 0L17.1266 27.6075" stroke="#502AA0" stroke-opacity="0.39" stroke-width="3.5" stroke-linecap="round"/>
<path d="M17.1266 0L44.6962 27.6075" stroke="#502AA0" stroke-opacity="0.39" stroke-width="3.5" stroke-linecap="round"/>
<path d="M72.2658 0L44.6962 27.6075" stroke="#502AA0" stroke-opacity="0.39" stroke-width="3.5" stroke-linecap="round"/>
<path d="M99.8354 0L72.2658 27.6075" stroke="#502AA0" stroke-opacity="0.39" stroke-width="3.5" stroke-linecap="round"/>
<path d="M127.405 0L99.8354 27.6075" stroke="#502AA0" stroke-opacity="0.39" stroke-width="3.5" stroke-linecap="round"/>
<path d="M154.975 0L127.405 27.6075" stroke="#502AA0" stroke-opacity="0.39" stroke-width="3.5" stroke-linecap="round"/>
<path d="M182.544 0L154.975 27.6075" stroke="#502AA0" stroke-opacity="0.39" stroke-width="3.5" stroke-linecap="round"/>
<path d="M210.114 0L182.544 27.6075" stroke="#502AA0" stroke-opacity="0.39" stroke-width="3.5" stroke-linecap="round"/>
<path d="M237.684 0L210.114 27.6075" stroke="#502AA0" stroke-opacity="0.39" stroke-width="3.5" stroke-linecap="round"/>
<path d="M237.684 0L265.253 27.6075" stroke="#502AA0" stroke-opacity="0.39" stroke-width="3.5" stroke-linecap="round"/>
<path d="M292.823 0L265.253 27.6075" stroke="#502AA0" stroke-opacity="0.39" stroke-width="3.5" stroke-linecap="round"/>
<path d="M320.392 0L292.823 27.6075" stroke="#502AA0" stroke-opacity="0.39" stroke-width="3.5" stroke-linecap="round"/>
<path d="M347.962 0L320.392 27.6075" stroke="#502AA0" stroke-opacity="0.39" stroke-width="3.5" stroke-linecap="round"/>
<path d="M347.962 0L375.532 27.6075" stroke="#502AA0" stroke-opacity="0.39" stroke-width="3.5" stroke-linecap="round"/>
<path d="M403.101 0L375.532 27.6075" stroke="#502AA0" stroke-opacity="0.39" stroke-width="3.5" stroke-linecap="round"/>
<path opacity="0.94" d="M-10.443 27.6075L17.1266 55.215" stroke="#502AA0" stroke-opacity="0.39" stroke-width="3.5" stroke-linecap="round"/>
<path opacity="0.94" d="M44.6962 27.6075L17.1266 55.215" stroke="#502AA0" stroke-opacity="0.39" stroke-width="3.5" stroke-linecap="round"/>
<path opacity="0.94" d="M72.2658 27.6075L44.6962 55.215" stroke="#502AA0" stroke-opacity="0.39" stroke-width="3.5" stroke-linecap="round"/>
<path opacity="0.94" d="M72.2658 27.6075L99.8354 55.215" stroke="#502AA0" stroke-opacity="0.39" stroke-width="3.5" stroke-linecap="round"/>
<path opacity="0.94" d="M127.405 27.6075L99.8354 55.215" stroke="#502AA0" stroke-opacity="0.39" stroke-width="3.5" stroke-linecap="round"/>
<path opacity="0.94" d="M127.405 27.6075L154.975 55.215" stroke="#502AA0" stroke-opacity="0.39" stroke-width="3.5" stroke-linecap="round"/>
<path opacity="0.94" d="M154.975 27.6075L182.544 55.215" stroke="#502AA0" stroke-opacity="0.39" stroke-width="3.5" stroke-linecap="round"/>
<path opacity="0.94" d="M182.544 27.6075L210.114 55.215" stroke="#502AA0" stroke-opacity="0.39" stroke-width="3.5" stroke-linecap="round"/>
<path opacity="0.94" d="M237.684 27.6075L210.114 55.215" stroke="#502AA0" stroke-opacity="0.39" stroke-width="3.5" stroke-linecap="round"/>
<path opacity="0.94" d="M237.684 27.6075L265.253 55.215" stroke="#502AA0" stroke-opacity="0.39" stroke-width="3.5" stroke-linecap="round"/>
<path opacity="0.94" d="M265.253 27.6075L292.823 55.215" stroke="#502AA0" stroke-opacity="0.39" stroke-width="3.5" stroke-linecap="round"/>
<path opacity="0.94" d="M292.823 27.6075L320.392 55.215" stroke="#502AA0" stroke-opacity="0.39" stroke-width="3.5" stroke-linecap="round"/>
<path opacity="0.94" d="M320.392 27.6075L347.962 55.215" stroke="#502AA0" stroke-opacity="0.39" stroke-width="3.5" stroke-linecap="round"/>
<path opacity="0.94" d="M375.532 27.6075L347.962 55.215" stroke="#502AA0" stroke-opacity="0.39" stroke-width="3.5" stroke-linecap="round"/>
<path opacity="0.94" d="M403.101 27.6075L375.532 55.215" stroke="#502AA0" stroke-opacity="0.39" stroke-width="3.5" stroke-linecap="round"/>
<path opacity="0.87" d="M17.1266 55.215L-10.443 82.8225" stroke="#502AA0" stroke-opacity="0.39" stroke-width="3.5" stroke-linecap="round"/>
<path opacity="0.87" d="M44.6962 55.215L17.1266 82.8225" stroke="#502AA0" stroke-opacity="0.39" stroke-width="3.5" stroke-linecap="round"/>
<path opacity="0.87" d="M72.2658 55.215L44.6962 82.8225" stroke="#502AA0" stroke-opacity="0.39" stroke-width="3.5" stroke-linecap="round"/>
<path opacity="0.87" d="M72.2658 55.215L99.8354 82.8225" stroke="#502AA0" stroke-opacity="0.39" stroke-width="3.5" stroke-linecap="round"/>
<path opacity="0.87" d="M99.8354 55.215L127.405 82.8225" stroke="#502AA0" stroke-opacity="0.39" stroke-width="3.5" stroke-linecap="round"/>
<path opacity="0.87" d="M154.975 55.215L127.405 82.8225" stroke="#502AA0" stroke-opacity="0.39" stroke-width="3.5" stroke-linecap="round"/>
<path opacity="0.87" d="M182.544 55.215L154.975 82.8225" stroke="#502AA0" stroke-opacity="0.39" stroke-width="3.5" stroke-linecap="round"/>
<path opacity="0.87" d="M182.544 55.215L210.114 82.8225" stroke="#502AA0" stroke-opacity="0.39" stroke-width="3.5" stroke-linecap="round"/>
<path opacity="0.87" d="M237.684 55.215L210.114 82.8225" stroke="#502AA0" stroke-opacity="0.39" stroke-width="3.5" stroke-linecap="round"/>
<path opacity="0.87" d="M265.253 55.215L237.684 82.8225" stroke="#502AA0" stroke-opacity="0.39" stroke-width="3.5" stroke-linecap="round"/>
<path opacity="0.87" d="M292.823 55.215L265.253 82.8225" stroke="#502AA0" stroke-opacity="0.39" stroke-width="3.5" stroke-linecap="round"/>
<path opacity="0.87" d="M320.392 55.215L292.823 82.8225" stroke="#502AA0" stroke-opacity="0.39" stroke-width="3.5" stroke-linecap="round"/>
<path opacity="0.87" d="M320.392 55.215L347.962 82.8225" stroke="#502AA0" stroke-opacity="0.39" stroke-width="3.5" stroke-linecap="round"/>
<path opacity="0.87" d="M375.532 55.215L347.962 82.8225" stroke="#502AA0" stroke-opacity="0.39" stroke-width="3.5" stroke-linecap="round"/>
<path opacity="0.87" d="M375.532 55.215L403.101 82.8225" stroke="#502AA0" stroke-opacity="0.39" stroke-width="3.5" stroke-linecap="round"/>
<path opacity="0.81" d="M17.1266 82.8225L-10.443 110.43" stroke="#502AA0" stroke-opacity="0.39" stroke-width="3.5" stroke-linecap="round"/>
<path opacity="0.81" d="M17.1266 82.8225L44.6962 110.43" stroke="#502AA0" stroke-opacity="0.39" stroke-width="3.5" stroke-linecap="round"/>
<path opacity="0.81" d="M72.2658 82.8225L44.6962 110.43" stroke="#502AA0" stroke-opacity="0.39" stroke-width="3.5" stroke-linecap="round"/>
<path opacity="0.81" d="M72.2658 82.8225L99.8354 110.43" stroke="#502AA0" stroke-opacity="0.39" stroke-width="3.5" stroke-linecap="round"/>
<path opacity="0.81" d="M99.8354 82.8225L127.405 110.43" stroke="#502AA0" stroke-opacity="0.39" stroke-width="3.5" stroke-linecap="round"/>
<path opacity="0.81" d="M127.405 82.8225L154.975 110.43" stroke="#502AA0" stroke-opacity="0.39" stroke-width="3.5" stroke-linecap="round"/>
<path opacity="0.81" d="M182.544 82.8225L154.975 110.43" stroke="#502AA0" stroke-opacity="0.39" stroke-width="3.5" stroke-linecap="round"/>
<path opacity="0.81" d="M210.114 82.8225L182.544 110.43" stroke="#502AA0" stroke-opacity="0.39" stroke-width="3.5" stroke-linecap="round"/>
<path opacity="0.81" d="M210.114 82.8225L237.684 110.43" stroke="#502AA0" stroke-opacity="0.39" stroke-width="3.5" stroke-linecap="round"/>
<path opacity="0.81" d="M237.684 82.8225L265.253 110.43" stroke="#502AA0" stroke-opacity="0.39" stroke-width="3.5" stroke-linecap="round"/>
<path opacity="0.81" d="M265.253 82.8225L292.823 110.43" stroke="#502AA0" stroke-opacity="0.39" stroke-width="3.5" stroke-linecap="round"/>
<path opacity="0.81" d="M320.392 82.8225L292.823 110.43" stroke="#502AA0" stroke-opacity="0.39" stroke-width="3.5" stroke-linecap="round"/>
<path opacity="0.81" d="M347.962 82.8225L320.392 110.43" stroke="#502AA0" stroke-opacity="0.39" stroke-width="3.5" stroke-linecap="round"/>
<path opacity="0.81" d="M375.532 82.8225L347.962 110.43" stroke="#502AA0" stroke-opacity="0.39" stroke-width="3.5" stroke-linecap="round"/>
<path opacity="0.81" d="M403.101 82.8225L375.532 110.43" stroke="#502AA0" stroke-opacity="0.39" stroke-width="3.5" stroke-linecap="round"/>
<path opacity="0.74" d="M17.1266 110.43L-10.443 138.038" stroke="#502AA0" stroke-opacity="0.39" stroke-width="3.5" stroke-linecap="round"/>
<path opacity="0.74" d="M17.1266 110.43L44.6962 138.038" stroke="#502AA0" stroke-opacity="0.39" stroke-width="3.5" stroke-linecap="round"/>
<path opacity="0.74" d="M72.2658 110.43L44.6962 138.038" stroke="#502AA0" stroke-opacity="0.39" stroke-width="3.5" stroke-linecap="round"/>
<path opacity="0.74" d="M99.8354 110.43L72.2658 138.038" stroke="#502AA0" stroke-opacity="0.39" stroke-width="3.5" stroke-linecap="round"/>
<path opacity="0.74" d="M99.8354 110.43L127.405 138.038" stroke="#502AA0" stroke-opacity="0.39" stroke-width="3.5" stroke-linecap="round"/>
<path opacity="0.74" d="M127.405 110.43L154.975 138.038" stroke="#502AA0" stroke-opacity="0.39" stroke-width="3.5" stroke-linecap="round"/>
<path opacity="0.74" d="M182.544 110.43L154.975 138.038" stroke="#502AA0" stroke-opacity="0.39" stroke-width="3.5" stroke-linecap="round"/>
<path opacity="0.74" d="M210.114 110.43L182.544 138.038" stroke="#502AA0" stroke-opacity="0.39" stroke-width="3.5" stroke-linecap="round"/>
<path opacity="0.74" d="M210.114 110.43L237.684 138.038" stroke="#502AA0" stroke-opacity="0.39" stroke-width="3.5" stroke-linecap="round"/>
<path opacity="0.74" d="M265.253 110.43L237.684 138.038" stroke="#502AA0" stroke-opacity="0.39" stroke-width="3.5" stroke-linecap="round"/>
<path opacity="0.74" d="M265.253 110.43L292.823 138.038" stroke="#502AA0" stroke-opacity="0.39" stroke-width="3.5" stroke-linecap="round"/>
<path opacity="0.74" d="M292.823 110.43L320.392 138.038" stroke="#502AA0" stroke-opacity="0.39" stroke-width="3.5" stroke-linecap="round"/>
<path opacity="0.74" d="M320.392 110.43L347.962 138.038" stroke="#502AA0" stroke-opacity="0.39" stroke-width="3.5" stroke-linecap="round"/>
<path opacity="0.74" d="M375.532 110.43L347.962 138.038" stroke="#502AA0" stroke-opacity="0.39" stroke-width="3.5" stroke-linecap="round"/>
<path opacity="0.74" d="M403.101 110.43L375.532 138.038" stroke="#502AA0" stroke-opacity="0.39" stroke-width="3.5" stroke-linecap="round"/>
<path opacity="0.68" d="M17.1266 138.037L-10.443 165.645" stroke="#502AA0" stroke-opacity="0.39" stroke-width="3.5" stroke-linecap="round"/>
<path opacity="0.68" d="M17.1266 138.037L44.6962 165.645" stroke="#502AA0" stroke-opacity="0.39" stroke-width="3.5" stroke-linecap="round"/>
<path opacity="0.68" d="M72.2658 138.037L44.6962 165.645" stroke="#502AA0" stroke-opacity="0.39" stroke-width="3.5" stroke-linecap="round"/>
<path opacity="0.68" d="M72.2658 138.037L99.8354 165.645" stroke="#502AA0" stroke-opacity="0.39" stroke-width="3.5" stroke-linecap="round"/>
<path opacity="0.68" d="M127.405 138.037L99.8354 165.645" stroke="#502AA0" stroke-opacity="0.39" stroke-width="3.5" stroke-linecap="round"/>
<path opacity="0.68" d="M154.975 138.037L127.405 165.645" stroke="#502AA0" stroke-opacity="0.39" stroke-width="3.5" stroke-linecap="round"/>
<path opacity="0.68" d="M154.975 138.037L182.544 165.645" stroke="#502AA0" stroke-opacity="0.39" stroke-width="3.5" stroke-linecap="round"/>
<path opacity="0.68" d="M210.114 138.037L182.544 165.645" stroke="#502AA0" stroke-opacity="0.39" stroke-width="3.5" stroke-linecap="round"/>
<path opacity="0.68" d="M237.684 138.037L210.114 165.645" stroke="#502AA0" stroke-opacity="0.39" stroke-width="3.5" stroke-linecap="round"/>
<path opacity="0.68" d="M265.253 138.037L237.684 165.645" stroke="#502AA0" stroke-opacity="0.39" stroke-width="3.5" stroke-linecap="round"/>
<path opacity="0.68" d="M292.823 138.037L265.253 165.645" stroke="#502AA0" stroke-opacity="0.39" stroke-width="3.5" stroke-linecap="round"/>
<path opacity="0.68" d="M320.392 138.037L292.823 165.645" stroke="#502AA0" stroke-opacity="0.39" stroke-width="3.5" stroke-linecap="round"/>
<path opacity="0.68" d="M320.392 138.037L347.962 165.645" stroke="#502AA0" stroke-opacity="0.39" stroke-width="3.5" stroke-linecap="round"/>
<path opacity="0.68" d="M375.532 138.037L347.962 165.645" stroke="#502AA0" stroke-opacity="0.39" stroke-width="3.5" stroke-linecap="round"/>
<path opacity="0.68" d="M403.101 138.037L375.532 165.645" stroke="#502AA0" stroke-opacity="0.39" stroke-width="3.5" stroke-linecap="round"/>
<path opacity="0.62" d="M17.1266 165.645L-10.443 193.253" stroke="#502AA0" stroke-opacity="0.39" stroke-width="3.5" stroke-linecap="round"/>
<path opacity="0.62" d="M44.6962 165.645L17.1266 193.253" stroke="#502AA0" stroke-opacity="0.39" stroke-width="3.5" stroke-linecap="round"/>
<path opacity="0.62" d="M72.2658 165.645L44.6962 193.253" stroke="#502AA0" stroke-opacity="0.39" stroke-width="3.5" stroke-linecap="round"/>
<path opacity="0.62" d="M72.2658 165.645L99.8354 193.253" stroke="#502AA0" stroke-opacity="0.39" stroke-width="3.5" stroke-linecap="round"/>
<path opacity="0.62" d="M127.405 165.645L99.8354 193.253" stroke="#502AA0" stroke-opacity="0.39" stroke-width="3.5" stroke-linecap="round"/>
<path opacity="0.62" d="M154.975 165.645L127.405 193.253" stroke="#502AA0" stroke-opacity="0.39" stroke-width="3.5" stroke-linecap="round"/>
<path opacity="0.62" d="M182.544 165.645L154.975 193.253" stroke="#502AA0" stroke-opacity="0.39" stroke-width="3.5" stroke-linecap="round"/>
<path opacity="0.62" d="M182.544 165.645L210.114 193.253" stroke="#502AA0" stroke-opacity="0.39" stroke-width="3.5" stroke-linecap="round"/>
<path opacity="0.62" d="M237.684 165.645L210.114 193.253" stroke="#502AA0" stroke-opacity="0.39" stroke-width="3.5" stroke-linecap="round"/>
<path opacity="0.62" d="M237.684 165.645L265.253 193.253" stroke="#502AA0" stroke-opacity="0.39" stroke-width="3.5" stroke-linecap="round"/>
<path opacity="0.62" d="M265.253 165.645L292.823 193.253" stroke="#502AA0" stroke-opacity="0.39" stroke-width="3.5" stroke-linecap="round"/>
<path opacity="0.62" d="M292.823 165.645L320.392 193.253" stroke="#502AA0" stroke-opacity="0.39" stroke-width="3.5" stroke-linecap="round"/>
<path opacity="0.62" d="M320.392 165.645L347.962 193.253" stroke="#502AA0" stroke-opacity="0.39" stroke-width="3.5" stroke-linecap="round"/>
<path opacity="0.62" d="M375.532 165.645L347.962 193.253" stroke="#502AA0" stroke-opacity="0.39" stroke-width="3.5" stroke-linecap="round"/>
<path opacity="0.62" d="M375.532 165.645L403.101 193.253" stroke="#502AA0" stroke-opacity="0.39" stroke-width="3.5" stroke-linecap="round"/>
<path opacity="0.55" d="M17.1266 193.253L-10.443 220.86" stroke="#502AA0" stroke-opacity="0.39" stroke-width="3.5" stroke-linecap="round"/>
<path opacity="0.55" d="M17.1266 193.253L44.6962 220.86" stroke="#502AA0" stroke-opacity="0.39" stroke-width="3.5" stroke-linecap="round"/>
<path opacity="0.55" d="M72.2658 193.253L44.6962 220.86" stroke="#502AA0" stroke-opacity="0.39" stroke-width="3.5" stroke-linecap="round"/>
<path opacity="0.55" d="M72.2658 193.253L99.8354 220.86" stroke="#502AA0" stroke-opacity="0.39" stroke-width="3.5" stroke-linecap="round"/>
<path opacity="0.55" d="M127.405 193.253L99.8354 220.86" stroke="#502AA0" stroke-opacity="0.39" stroke-width="3.5" stroke-linecap="round"/>
<path opacity="0.55" d="M127.405 193.253L154.975 220.86" stroke="#502AA0" stroke-opacity="0.39" stroke-width="3.5" stroke-linecap="round"/>
<path opacity="0.55" d="M154.975 193.253L182.544 220.86" stroke="#502AA0" stroke-opacity="0.39" stroke-width="3.5" stroke-linecap="round"/>
<path opacity="0.55" d="M210.114 193.253L182.544 220.86" stroke="#502AA0" stroke-opacity="0.39" stroke-width="3.5" stroke-linecap="round"/>
<path opacity="0.55" d="M237.684 193.253L210.114 220.86" stroke="#502AA0" stroke-opacity="0.39" stroke-width="3.5" stroke-linecap="round"/>
<path opacity="0.55" d="M265.253 193.253L237.684 220.86" stroke="#502AA0" stroke-opacity="0.39" stroke-width="3.5" stroke-linecap="round"/>
<path opacity="0.55" d="M292.823 193.253L265.253 220.86" stroke="#502AA0" stroke-opacity="0.39" stroke-width="3.5" stroke-linecap="round"/>
<path opacity="0.55" d="M320.392 193.253L292.823 220.86" stroke="#502AA0" stroke-opacity="0.39" stroke-width="3.5" stroke-linecap="round"/>
<path opacity="0.55" d="M347.962 193.253L320.392 220.86" stroke="#502AA0" stroke-opacity="0.39" stroke-width="3.5" stroke-linecap="round"/>
<path opacity="0.55" d="M375.532 193.253L347.962 220.86" stroke="#502AA0" stroke-opacity="0.39" stroke-width="3.5" stroke-linecap="round"/>
<path opacity="0.55" d="M403.101 193.253L375.532 220.86" stroke="#502AA0" stroke-opacity="0.39" stroke-width="3.5" stroke-linecap="round"/>
<path opacity="0.49" d="M17.1266 220.86L-10.443 248.467" stroke="#502AA0" stroke-opacity="0.39" stroke-width="3.5" stroke-linecap="round"/>
<path opacity="0.49" d="M17.1266 220.86L44.6962 248.467" stroke="#502AA0" stroke-opacity="0.39" stroke-width="3.5" stroke-linecap="round"/>
<path opacity="0.49" d="M44.6962 220.86L72.2658 248.467" stroke="#502AA0" stroke-opacity="0.39" stroke-width="3.5" stroke-linecap="round"/>
<path opacity="0.49" d="M99.8354 220.86L72.2658 248.467" stroke="#502AA0" stroke-opacity="0.39" stroke-width="3.5" stroke-linecap="round"/>
<path opacity="0.49" d="M127.405 220.86L99.8354 248.467" stroke="#502AA0" stroke-opacity="0.39" stroke-width="3.5" stroke-linecap="round"/>
<path opacity="0.49" d="M127.405 220.86L154.975 248.467" stroke="#502AA0" stroke-opacity="0.39" stroke-width="3.5" stroke-linecap="round"/>
<path opacity="0.49" d="M182.544 220.86L154.975 248.467" stroke="#502AA0" stroke-opacity="0.39" stroke-width="3.5" stroke-linecap="round"/>
<path opacity="0.49" d="M210.114 220.86L182.544 248.467" stroke="#502AA0" stroke-opacity="0.39" stroke-width="3.5" stroke-linecap="round"/>
<path opacity="0.49" d="M237.684 220.86L210.114 248.467" stroke="#502AA0" stroke-opacity="0.39" stroke-width="3.5" stroke-linecap="round"/>
<path opacity="0.49" d="M237.684 220.86L265.253 248.467" stroke="#502AA0" stroke-opacity="0.39" stroke-width="3.5" stroke-linecap="round"/>
<path opacity="0.49" d="M265.253 220.86L292.823 248.467" stroke="#502AA0" stroke-opacity="0.39" stroke-width="3.5" stroke-linecap="round"/>
<path opacity="0.49" d="M292.823 220.86L320.392 248.467" stroke="#502AA0" stroke-opacity="0.39" stroke-width="3.5" stroke-linecap="round"/>
<path opacity="0.49" d="M347.962 220.86L320.392 248.467" stroke="#502AA0" stroke-opacity="0.39" stroke-width="3.5" stroke-linecap="round"/>
<path opacity="0.49" d="M347.962 220.86L375.532 248.467" stroke="#502AA0" stroke-opacity="0.39" stroke-width="3.5" stroke-linecap="round"/>
<path opacity="0.49" d="M375.532 220.86L403.101 248.467" stroke="#502AA0" stroke-opacity="0.39" stroke-width="3.5" stroke-linecap="round"/>
<path opacity="0.42" d="M-10.443 248.468L17.1266 276.075" stroke="#502AA0" stroke-opacity="0.39" stroke-width="3.5" stroke-linecap="round"/>
<path opacity="0.42" d="M44.6962 248.468L17.1266 276.075" stroke="#502AA0" stroke-opacity="0.39" stroke-width="3.5" stroke-linecap="round"/>
<path opacity="0.42" d="M72.2658 248.468L44.6962 276.075" stroke="#502AA0" stroke-opacity="0.39" stroke-width="3.5" stroke-linecap="round"/>
<path opacity="0.42" d="M99.8354 248.468L72.2658 276.075" stroke="#502AA0" stroke-opacity="0.39" stroke-width="3.5" stroke-linecap="round"/>
<path opacity="0.42" d="M99.8354 248.468L127.405 276.075" stroke="#502AA0" stroke-opacity="0.39" stroke-width="3.5" stroke-linecap="round"/>
<path opacity="0.42" d="M154.975 248.468L127.405 276.075" stroke="#502AA0" stroke-opacity="0.39" stroke-width="3.5" stroke-linecap="round"/>
<path opacity="0.42" d="M154.975 248.468L182.544 276.075" stroke="#502AA0" stroke-opacity="0.39" stroke-width="3.5" stroke-linecap="round"/>
<path opacity="0.42" d="M182.544 248.468L210.114 276.075" stroke="#502AA0" stroke-opacity="0.39" stroke-width="3.5" stroke-linecap="round"/>
<path opacity="0.42" d="M237.684 248.468L210.114 276.075" stroke="#502AA0" stroke-opacity="0.39" stroke-width="3.5" stroke-linecap="round"/>
<path opacity="0.42" d="M265.253 248.468L237.684 276.075" stroke="#502AA0" stroke-opacity="0.39" stroke-width="3.5" stroke-linecap="round"/>
<path opacity="0.42" d="M292.823 248.468L265.253 276.075" stroke="#502AA0" stroke-opacity="0.39" stroke-width="3.5" stroke-linecap="round"/>
<path opacity="0.42" d="M320.392 248.468L292.823 276.075" stroke="#502AA0" stroke-opacity="0.39" stroke-width="3.5" stroke-linecap="round"/>
<path opacity="0.42" d="M320.392 248.468L347.962 276.075" stroke="#502AA0" stroke-opacity="0.39" stroke-width="3.5" stroke-linecap="round"/>
<path opacity="0.42" d="M375.532 248.468L347.962 276.075" stroke="#502AA0" stroke-opacity="0.39" stroke-width="3.5" stroke-linecap="round"/>
<path opacity="0.42" d="M403.101 248.468L375.532 276.075" stroke="#502AA0" stroke-opacity="0.39" stroke-width="3.5" stroke-linecap="round"/>
<path opacity="0.36" d="M17.1266 276.075L-10.443 303.682" stroke="#502AA0" stroke-opacity="0.39" stroke-width="3.5" stroke-linecap="round"/>
<path opacity="0.36" d="M44.6962 276.075L17.1266 303.682" stroke="#502AA0" stroke-opacity="0.39" stroke-width="3.5" stroke-linecap="round"/>
<path opacity="0.36" d="M72.2658 276.075L44.6962 303.682" stroke="#502AA0" stroke-opacity="0.39" stroke-width="3.5" stroke-linecap="round"/>
<path opacity="0.36" d="M99.8354 276.075L72.2658 303.682" stroke="#502AA0" stroke-opacity="0.39" stroke-width="3.5" stroke-linecap="round"/>
<path opacity="0.36" d="M127.405 276.075L99.8354 303.682" stroke="#502AA0" stroke-opacity="0.39" stroke-width="3.5" stroke-linecap="round"/>
<path opacity="0.36" d="M154.975 276.075L127.405 303.682" stroke="#502AA0" stroke-opacity="0.39" stroke-width="3.5" stroke-linecap="round"/>
<path opacity="0.36" d="M182.544 276.075L154.975 303.682" stroke="#502AA0" stroke-opacity="0.39" stroke-width="3.5" stroke-linecap="round"/>
<path opacity="0.36" d="M182.544 276.075L210.114 303.682" stroke="#502AA0" stroke-opacity="0.39" stroke-width="3.5" stroke-linecap="round"/>
<path opacity="0.36" d="M210.114 276.075L237.684 303.682" stroke="#502AA0" stroke-opacity="0.39" stroke-width="3.5" stroke-linecap="round"/>
<path opacity="0.36" d="M265.253 276.075L237.684 303.682" stroke="#502AA0" stroke-opacity="0.39" stroke-width="3.5" stroke-linecap="round"/>
<path opacity="0.36" d="M265.253 276.075L292.823 303.682" stroke="#502AA0" stroke-opacity="0.39" stroke-width="3.5" stroke-linecap="round"/>
<path opacity="0.36" d="M292.823 276.075L320.392 303.682" stroke="#502AA0" stroke-opacity="0.39" stroke-width="3.5" stroke-linecap="round"/>
<path opacity="0.36" d="M320.392 276.075L347.962 303.682" stroke="#502AA0" stroke-opacity="0.39" stroke-width="3.5" stroke-linecap="round"/>
<path opacity="0.36" d="M375.532 276.075L347.962 303.682" stroke="#502AA0" stroke-opacity="0.39" stroke-width="3.5" stroke-linecap="round"/>
<path opacity="0.36" d="M403.101 276.075L375.532 303.682" stroke="#502AA0" stroke-opacity="0.39" stroke-width="3.5" stroke-linecap="round"/>
<path opacity="0.29" d="M17.1266 303.682L-10.443 331.29" stroke="#502AA0" stroke-opacity="0.39" stroke-width="3.5" stroke-linecap="round"/>
<path opacity="0.29" d="M17.1266 303.682L44.6962 331.29" stroke="#502AA0" stroke-opacity="0.39" stroke-width="3.5" stroke-linecap="round"/>
<path opacity="0.29" d="M44.6962 303.682L72.2658 331.29" stroke="#502AA0" stroke-opacity="0.39" stroke-width="3.5" stroke-linecap="round"/>
<path opacity="0.29" d="M99.8354 303.682L72.2658 331.29" stroke="#502AA0" stroke-opacity="0.39" stroke-width="3.5" stroke-linecap="round"/>
<path opacity="0.29" d="M127.405 303.682L99.8354 331.29" stroke="#502AA0" stroke-opacity="0.39" stroke-width="3.5" stroke-linecap="round"/>
<path opacity="0.29" d="M127.405 303.682L154.975 331.29" stroke="#502AA0" stroke-opacity="0.39" stroke-width="3.5" stroke-linecap="round"/>
<path opacity="0.29" d="M182.544 303.682L154.975 331.29" stroke="#502AA0" stroke-opacity="0.39" stroke-width="3.5" stroke-linecap="round"/>
<path opacity="0.29" d="M182.544 303.682L210.114 331.29" stroke="#502AA0" stroke-opacity="0.39" stroke-width="3.5" stroke-linecap="round"/>
<path opacity="0.29" d="M237.684 303.682L210.114 331.29" stroke="#502AA0" stroke-opacity="0.39" stroke-width="3.5" stroke-linecap="round"/>
<path opacity="0.29" d="M237.684 303.682L265.253 331.29" stroke="#502AA0" stroke-opacity="0.39" stroke-width="3.5" stroke-linecap="round"/>
<path opacity="0.29" d="M265.253 303.682L292.823 331.29" stroke="#502AA0" stroke-opacity="0.39" stroke-width="3.5" stroke-linecap="round"/>
<path opacity="0.29" d="M292.823 303.682L320.392 331.29" stroke="#502AA0" stroke-opacity="0.39" stroke-width="3.5" stroke-linecap="round"/>
<path opacity="0.29" d="M320.392 303.682L347.962 331.29" stroke="#502AA0" stroke-opacity="0.39" stroke-width="3.5" stroke-linecap="round"/>
<path opacity="0.29" d="M375.532 303.682L347.962 331.29" stroke="#502AA0" stroke-opacity="0.39" stroke-width="3.5" stroke-linecap="round"/>
<path opacity="0.29" d="M375.532 303.682L403.101 331.29" stroke="#502AA0" stroke-opacity="0.39" stroke-width="3.5" stroke-linecap="round"/>
<path opacity="0.23" d="M-10.443 331.29L17.1266 358.898" stroke="#502AA0" stroke-opacity="0.39" stroke-width="3.5" stroke-linecap="round"/>
<path opacity="0.23" d="M44.6962 331.29L17.1266 358.898" stroke="#502AA0" stroke-opacity="0.39" stroke-width="3.5" stroke-linecap="round"/>
<path opacity="0.23" d="M72.2658 331.29L44.6962 358.898" stroke="#502AA0" stroke-opacity="0.39" stroke-width="3.5" stroke-linecap="round"/>
<path opacity="0.23" d="M99.8354 331.29L72.2658 358.898" stroke="#502AA0" stroke-opacity="0.39" stroke-width="3.5" stroke-linecap="round"/>
<path opacity="0.23" d="M127.405 331.29L99.8354 358.898" stroke="#502AA0" stroke-opacity="0.39" stroke-width="3.5" stroke-linecap="round"/>
<path opacity="0.23" d="M154.975 331.29L127.405 358.898" stroke="#502AA0" stroke-opacity="0.39" stroke-width="3.5" stroke-linecap="round"/>
<path opacity="0.23" d="M182.544 331.29L154.975 358.898" stroke="#502AA0" stroke-opacity="0.39" stroke-width="3.5" stroke-linecap="round"/>
<path opacity="0.23" d="M210.114 331.29L182.544 358.898" stroke="#502AA0" stroke-opacity="0.39" stroke-width="3.5" stroke-linecap="round"/>
<path opacity="0.23" d="M237.684 331.29L210.114 358.898" stroke="#502AA0" stroke-opacity="0.39" stroke-width="3.5" stroke-linecap="round"/>
<path opacity="0.23" d="M237.684 331.29L265.253 358.898" stroke="#502AA0" stroke-opacity="0.39" stroke-width="3.5" stroke-linecap="round"/>
<path opacity="0.23" d="M292.823 331.29L265.253 358.898" stroke="#502AA0" stroke-opacity="0.39" stroke-width="3.5" stroke-linecap="round"/>
<path opacity="0.23" d="M320.392 331.29L292.823 358.898" stroke="#502AA0" stroke-opacity="0.39" stroke-width="3.5" stroke-linecap="round"/>
<path opacity="0.23" d="M347.962 331.29L320.392 358.898" stroke="#502AA0" stroke-opacity="0.39" stroke-width="3.5" stroke-linecap="round"/>
<path opacity="0.23" d="M375.532 331.29L347.962 358.898" stroke="#502AA0" stroke-opacity="0.39" stroke-width="3.5" stroke-linecap="round"/>
<path opacity="0.23" d="M403.101 331.29L375.532 358.898" stroke="#502AA0" stroke-opacity="0.39" stroke-width="3.5" stroke-linecap="round"/>
<path opacity="0.17" d="M-10.443 358.897L17.1266 386.505" stroke="#502AA0" stroke-opacity="0.39" stroke-width="3.5" stroke-linecap="round"/>
<path opacity="0.17" d="M44.6962 358.897L17.1266 386.505" stroke="#502AA0" stroke-opacity="0.39" stroke-width="3.5" stroke-linecap="round"/>
<path opacity="0.17" d="M72.2658 358.897L44.6962 386.505" stroke="#502AA0" stroke-opacity="0.39" stroke-width="3.5" stroke-linecap="round"/>
<path opacity="0.17" d="M99.8354 358.897L72.2658 386.505" stroke="#502AA0" stroke-opacity="0.39" stroke-width="3.5" stroke-linecap="round"/>
<path opacity="0.17" d="M99.8354 358.897L127.405 386.505" stroke="#502AA0" stroke-opacity="0.39" stroke-width="3.5" stroke-linecap="round"/>
<path opacity="0.17" d="M154.975 358.897L127.405 386.505" stroke="#502AA0" stroke-opacity="0.39" stroke-width="3.5" stroke-linecap="round"/>
<path opacity="0.17" d="M182.544 358.897L154.975 386.505" stroke="#502AA0" stroke-opacity="0.39" stroke-width="3.5" stroke-linecap="round"/>
<path opacity="0.17" d="M210.114 358.897L182.544 386.505" stroke="#502AA0" stroke-opacity="0.39" stroke-width="3.5" stroke-linecap="round"/>
<path opacity="0.17" d="M210.114 358.897L237.684 386.505" stroke="#502AA0" stroke-opacity="0.39" stroke-width="3.5" stroke-linecap="round"/>
<path opacity="0.17" d="M265.253 358.897L237.684 386.505" stroke="#502AA0" stroke-opacity="0.39" stroke-width="3.5" stroke-linecap="round"/>
<path opacity="0.17" d="M265.253 358.897L292.823 386.505" stroke="#502AA0" stroke-opacity="0.39" stroke-width="3.5" stroke-linecap="round"/>
<path opacity="0.17" d="M292.823 358.897L320.392 386.505" stroke="#502AA0" stroke-opacity="0.39" stroke-width="3.5" stroke-linecap="round"/>
<path opacity="0.17" d="M320.392 358.897L347.962 386.505" stroke="#502AA0" stroke-opacity="0.39" stroke-width="3.5" stroke-linecap="round"/>
<path opacity="0.17" d="M347.962 358.897L375.532 386.505" stroke="#502AA0" stroke-opacity="0.39" stroke-width="3.5" stroke-linecap="round"/>
<path opacity="0.17" d="M375.532 358.897L403.101 386.505" stroke="#502AA0" stroke-opacity="0.39" stroke-width="3.5" stroke-linecap="round"/>
<path opacity="0.1" d="M17.1266 386.505L-10.443 414.113" stroke="#502AA0" stroke-opacity="0.39" stroke-width="3.5" stroke-linecap="round"/>
<path opacity="0.1" d="M44.6962 386.505L17.1266 414.113" stroke="#502AA0" stroke-opacity="0.39" stroke-width="3.5" stroke-linecap="round"/>
<path opacity="0.1" d="M72.2658 386.505L44.6962 414.113" stroke="#502AA0" stroke-opacity="0.39" stroke-width="3.5" stroke-linecap="round"/>
<path opacity="0.1" d="M99.8354 386.505L72.2658 414.113" stroke="#502AA0" stroke-opacity="0.39" stroke-width="3.5" stroke-linecap="round"/>
<path opacity="0.1" d="M127.405 386.505L99.8354 414.113" stroke="#502AA0" stroke-opacity="0.39" stroke-width="3.5" stroke-linecap="round"/>
<path opacity="0.1" d="M154.975 386.505L127.405 414.113" stroke="#502AA0" stroke-opacity="0.39" stroke-width="3.5" stroke-linecap="round"/>
<path opacity="0.1" d="M154.975 386.505L182.544 414.113" stroke="#502AA0" stroke-opacity="0.39" stroke-width="3.5" stroke-linecap="round"/>
<path opacity="0.1" d="M182.544 386.505L210.114 414.113" stroke="#502AA0" stroke-opacity="0.39" stroke-width="3.5" stroke-linecap="round"/>
<path opacity="0.1" d="M210.114 386.505L237.684 414.113" stroke="#502AA0" stroke-opacity="0.39" stroke-width="3.5" stroke-linecap="round"/>
<path opacity="0.1" d="M237.684 386.505L265.253 414.113" stroke="#502AA0" stroke-opacity="0.39" stroke-width="3.5" stroke-linecap="round"/>
<path opacity="0.1" d="M292.823 386.505L265.253 414.113" stroke="#502AA0" stroke-opacity="0.39" stroke-width="3.5" stroke-linecap="round"/>
<path opacity="0.1" d="M320.392 386.505L292.823 414.113" stroke="#502AA0" stroke-opacity="0.39" stroke-width="3.5" stroke-linecap="round"/>
<path opacity="0.1" d="M320.392 386.505L347.962 414.113" stroke="#502AA0" stroke-opacity="0.39" stroke-width="3.5" stroke-linecap="round"/>
<path opacity="0.1" d="M375.532 386.505L347.962 414.113" stroke="#502AA0" stroke-opacity="0.39" stroke-width="3.5" stroke-linecap="round"/>
<path opacity="0.1" d="M375.532 386.505L403.101 414.113" stroke="#502AA0" stroke-opacity="0.39" stroke-width="3.5" stroke-linecap="round"/>
</g>
<defs>
<clipPath id="clip0_2041_195">
<rect width="726" height="409" fill="white" transform="translate(-231)"/>
</clipPath>
</defs>
</svg>
