<svg width="1728" height="1006" viewBox="0 0 1728 1006" fill="none" xmlns="http://www.w3.org/2000/svg">
<g clip-path="url(#clip0_141_412)">
<path d="M-30 0L37.8987 67.905" stroke="#502AA0" stroke-width="3.5" stroke-linecap="round"/>
<path d="M37.8987 0L105.797 67.905" stroke="#502AA0" stroke-width="3.5" stroke-linecap="round"/>
<path d="M105.797 0L173.696 67.905" stroke="#502AA0" stroke-width="3.5" stroke-linecap="round"/>
<path d="M241.595 0L173.696 67.905" stroke="#502AA0" stroke-width="3.5" stroke-linecap="round"/>
<path d="M309.494 0L241.595 67.905" stroke="#502AA0" stroke-width="3.5" stroke-linecap="round"/>
<path d="M377.392 0L309.494 67.905" stroke="#502AA0" stroke-width="3.5" stroke-linecap="round"/>
<path d="M377.392 0L445.291 67.905" stroke="#502AA0" stroke-width="3.5" stroke-linecap="round"/>
<path d="M445.291 0L513.19 67.905" stroke="#502AA0" stroke-width="3.5" stroke-linecap="round"/>
<path d="M513.19 0L581.089 67.905" stroke="#502AA0" stroke-width="3.5" stroke-linecap="round"/>
<path d="M581.089 0L648.987 67.905" stroke="#502AA0" stroke-width="3.5" stroke-linecap="round"/>
<path d="M716.886 0L648.987 67.905" stroke="#502AA0" stroke-width="3.5" stroke-linecap="round"/>
<path d="M784.785 0L716.886 67.905" stroke="#502AA0" stroke-width="3.5" stroke-linecap="round"/>
<path d="M852.683 0L784.785 67.905" stroke="#502AA0" stroke-width="3.5" stroke-linecap="round"/>
<path d="M920.582 0L852.684 67.905" stroke="#502AA0" stroke-width="3.5" stroke-linecap="round"/>
<path d="M988.481 0L920.582 67.905" stroke="#502AA0" stroke-width="3.5" stroke-linecap="round"/>
<path d="M1056.38 0L988.481 67.905" stroke="#502AA0" stroke-width="3.5" stroke-linecap="round"/>
<path d="M1124.28 0L1056.38 67.905" stroke="#502AA0" stroke-width="3.5" stroke-linecap="round"/>
<path d="M1124.28 0L1192.18 67.905" stroke="#502AA0" stroke-width="3.5" stroke-linecap="round"/>
<path d="M1260.08 0L1192.18 67.905" stroke="#502AA0" stroke-width="3.5" stroke-linecap="round"/>
<path d="M1327.97 0L1260.08 67.905" stroke="#502AA0" stroke-width="3.5" stroke-linecap="round"/>
<path d="M1395.87 0L1327.97 67.905" stroke="#502AA0" stroke-width="3.5" stroke-linecap="round"/>
<path d="M1395.87 0L1463.77 67.905" stroke="#502AA0" stroke-width="3.5" stroke-linecap="round"/>
<path d="M1531.67 0L1463.77 67.905" stroke="#502AA0" stroke-width="3.5" stroke-linecap="round"/>
<path d="M1531.67 0L1599.57 67.905" stroke="#502AA0" stroke-width="3.5" stroke-linecap="round"/>
<path d="M1599.57 0L1667.47 67.905" stroke="#502AA0" stroke-width="3.5" stroke-linecap="round"/>
<path d="M1735.37 0L1667.47 67.905" stroke="#502AA0" stroke-width="3.5" stroke-linecap="round"/>
<path opacity="0.94" d="M-30 67.905L37.8987 135.81" stroke="#502AA0" stroke-width="3.5" stroke-linecap="round"/>
<path opacity="0.94" d="M37.8987 67.905L105.797 135.81" stroke="#502AA0" stroke-width="3.5" stroke-linecap="round"/>
<path opacity="0.94" d="M105.797 67.905L173.696 135.81" stroke="#502AA0" stroke-width="3.5" stroke-linecap="round"/>
<path opacity="0.94" d="M241.595 67.905L173.696 135.81" stroke="#502AA0" stroke-width="3.5" stroke-linecap="round"/>
<path opacity="0.94" d="M309.494 67.905L241.595 135.81" stroke="#502AA0" stroke-width="3.5" stroke-linecap="round"/>
<path opacity="0.94" d="M309.494 67.905L377.392 135.81" stroke="#502AA0" stroke-width="3.5" stroke-linecap="round"/>
<path opacity="0.94" d="M445.291 67.905L377.392 135.81" stroke="#502AA0" stroke-width="3.5" stroke-linecap="round"/>
<path opacity="0.94" d="M513.19 67.905L445.291 135.81" stroke="#502AA0" stroke-width="3.5" stroke-linecap="round"/>
<path opacity="0.94" d="M513.19 67.905L581.089 135.81" stroke="#502AA0" stroke-width="3.5" stroke-linecap="round"/>
<path opacity="0.94" d="M648.987 67.905L581.089 135.81" stroke="#502AA0" stroke-width="3.5" stroke-linecap="round"/>
<path opacity="0.94" d="M716.886 67.905L648.987 135.81" stroke="#502AA0" stroke-width="3.5" stroke-linecap="round"/>
<path opacity="0.94" d="M716.886 67.905L784.785 135.81" stroke="#502AA0" stroke-width="3.5" stroke-linecap="round"/>
<path opacity="0.94" d="M852.683 67.905L784.785 135.81" stroke="#502AA0" stroke-width="3.5" stroke-linecap="round"/>
<path opacity="0.94" d="M852.684 67.905L920.582 135.81" stroke="#502AA0" stroke-width="3.5" stroke-linecap="round"/>
<path opacity="0.94" d="M920.582 67.905L988.481 135.81" stroke="#502AA0" stroke-width="3.5" stroke-linecap="round"/>
<path opacity="0.94" d="M988.481 67.905L1056.38 135.81" stroke="#502AA0" stroke-width="3.5" stroke-linecap="round"/>
<path opacity="0.94" d="M1124.28 67.905L1056.38 135.81" stroke="#502AA0" stroke-width="3.5" stroke-linecap="round"/>
<path opacity="0.94" d="M1124.28 67.905L1192.18 135.81" stroke="#502AA0" stroke-width="3.5" stroke-linecap="round"/>
<path opacity="0.94" d="M1192.18 67.905L1260.08 135.81" stroke="#502AA0" stroke-width="3.5" stroke-linecap="round"/>
<path opacity="0.94" d="M1260.08 67.905L1327.97 135.81" stroke="#502AA0" stroke-width="3.5" stroke-linecap="round"/>
<path opacity="0.94" d="M1327.97 67.905L1395.87 135.81" stroke="#502AA0" stroke-width="3.5" stroke-linecap="round"/>
<path opacity="0.94" d="M1463.77 67.905L1395.87 135.81" stroke="#502AA0" stroke-width="3.5" stroke-linecap="round"/>
<path opacity="0.94" d="M1531.67 67.905L1463.77 135.81" stroke="#502AA0" stroke-width="3.5" stroke-linecap="round"/>
<path opacity="0.94" d="M1599.57 67.905L1531.67 135.81" stroke="#502AA0" stroke-width="3.5" stroke-linecap="round"/>
<path opacity="0.94" d="M1667.47 67.905L1599.57 135.81" stroke="#502AA0" stroke-width="3.5" stroke-linecap="round"/>
<path opacity="0.94" d="M1735.37 67.905L1667.47 135.81" stroke="#502AA0" stroke-width="3.5" stroke-linecap="round"/>
<path opacity="0.87" d="M37.8987 135.81L-30 203.715" stroke="#502AA0" stroke-width="3.5" stroke-linecap="round"/>
<path opacity="0.87" d="M37.8987 135.81L105.797 203.715" stroke="#502AA0" stroke-width="3.5" stroke-linecap="round"/>
<path opacity="0.87" d="M173.696 135.81L105.797 203.715" stroke="#502AA0" stroke-width="3.5" stroke-linecap="round"/>
<path opacity="0.87" d="M241.595 135.81L173.696 203.715" stroke="#502AA0" stroke-width="3.5" stroke-linecap="round"/>
<path opacity="0.87" d="M309.494 135.81L241.595 203.715" stroke="#502AA0" stroke-width="3.5" stroke-linecap="round"/>
<path opacity="0.87" d="M309.494 135.81L377.392 203.715" stroke="#502AA0" stroke-width="3.5" stroke-linecap="round"/>
<path opacity="0.87" d="M377.392 135.81L445.291 203.715" stroke="#502AA0" stroke-width="3.5" stroke-linecap="round"/>
<path opacity="0.87" d="M513.19 135.81L445.291 203.715" stroke="#502AA0" stroke-width="3.5" stroke-linecap="round"/>
<path opacity="0.87" d="M581.089 135.81L513.19 203.715" stroke="#502AA0" stroke-width="3.5" stroke-linecap="round"/>
<path opacity="0.87" d="M648.987 135.81L581.089 203.715" stroke="#502AA0" stroke-width="3.5" stroke-linecap="round"/>
<path opacity="0.87" d="M716.886 135.81L648.987 203.715" stroke="#502AA0" stroke-width="3.5" stroke-linecap="round"/>
<path opacity="0.87" d="M716.886 135.81L784.785 203.715" stroke="#502AA0" stroke-width="3.5" stroke-linecap="round"/>
<path opacity="0.87" d="M784.785 135.81L852.683 203.715" stroke="#502AA0" stroke-width="3.5" stroke-linecap="round"/>
<path opacity="0.87" d="M920.582 135.81L852.684 203.715" stroke="#502AA0" stroke-width="3.5" stroke-linecap="round"/>
<path opacity="0.87" d="M988.481 135.81L920.582 203.715" stroke="#502AA0" stroke-width="3.5" stroke-linecap="round"/>
<path opacity="0.87" d="M988.481 135.81L1056.38 203.715" stroke="#502AA0" stroke-width="3.5" stroke-linecap="round"/>
<path opacity="0.87" d="M1124.28 135.81L1056.38 203.715" stroke="#502AA0" stroke-width="3.5" stroke-linecap="round"/>
<path opacity="0.87" d="M1192.18 135.81L1124.28 203.715" stroke="#502AA0" stroke-width="3.5" stroke-linecap="round"/>
<path opacity="0.87" d="M1260.08 135.81L1192.18 203.715" stroke="#502AA0" stroke-width="3.5" stroke-linecap="round"/>
<path opacity="0.87" d="M1327.97 135.81L1260.08 203.715" stroke="#502AA0" stroke-width="3.5" stroke-linecap="round"/>
<path opacity="0.87" d="M1327.97 135.81L1395.87 203.715" stroke="#502AA0" stroke-width="3.5" stroke-linecap="round"/>
<path opacity="0.87" d="M1463.77 135.81L1395.87 203.715" stroke="#502AA0" stroke-width="3.5" stroke-linecap="round"/>
<path opacity="0.87" d="M1463.77 135.81L1531.67 203.715" stroke="#502AA0" stroke-width="3.5" stroke-linecap="round"/>
<path opacity="0.87" d="M1531.67 135.81L1599.57 203.715" stroke="#502AA0" stroke-width="3.5" stroke-linecap="round"/>
<path opacity="0.87" d="M1599.57 135.81L1667.47 203.715" stroke="#502AA0" stroke-width="3.5" stroke-linecap="round"/>
<path opacity="0.87" d="M1735.37 135.81L1667.47 203.715" stroke="#502AA0" stroke-width="3.5" stroke-linecap="round"/>
<path opacity="0.81" d="M-30 203.715L37.8987 271.62" stroke="#502AA0" stroke-width="3.5" stroke-linecap="round"/>
<path opacity="0.81" d="M37.8987 203.715L105.797 271.62" stroke="#502AA0" stroke-width="3.5" stroke-linecap="round"/>
<path opacity="0.81" d="M173.696 203.715L105.797 271.62" stroke="#502AA0" stroke-width="3.5" stroke-linecap="round"/>
<path opacity="0.81" d="M241.595 203.715L173.696 271.62" stroke="#502AA0" stroke-width="3.5" stroke-linecap="round"/>
<path opacity="0.81" d="M309.494 203.715L241.595 271.62" stroke="#502AA0" stroke-width="3.5" stroke-linecap="round"/>
<path opacity="0.81" d="M309.494 203.715L377.392 271.62" stroke="#502AA0" stroke-width="3.5" stroke-linecap="round"/>
<path opacity="0.81" d="M377.392 203.715L445.291 271.62" stroke="#502AA0" stroke-width="3.5" stroke-linecap="round"/>
<path opacity="0.81" d="M513.19 203.715L445.291 271.62" stroke="#502AA0" stroke-width="3.5" stroke-linecap="round"/>
<path opacity="0.81" d="M581.089 203.715L513.19 271.62" stroke="#502AA0" stroke-width="3.5" stroke-linecap="round"/>
<path opacity="0.81" d="M581.089 203.715L648.987 271.62" stroke="#502AA0" stroke-width="3.5" stroke-linecap="round"/>
<path opacity="0.81" d="M716.886 203.715L648.987 271.62" stroke="#502AA0" stroke-width="3.5" stroke-linecap="round"/>
<path opacity="0.81" d="M716.886 203.715L784.785 271.62" stroke="#502AA0" stroke-width="3.5" stroke-linecap="round"/>
<path opacity="0.81" d="M784.785 203.715L852.683 271.62" stroke="#502AA0" stroke-width="3.5" stroke-linecap="round"/>
<path opacity="0.81" d="M852.684 203.715L920.582 271.62" stroke="#502AA0" stroke-width="3.5" stroke-linecap="round"/>
<path opacity="0.81" d="M988.481 203.715L920.582 271.62" stroke="#502AA0" stroke-width="3.5" stroke-linecap="round"/>
<path opacity="0.81" d="M1056.38 203.715L988.481 271.62" stroke="#502AA0" stroke-width="3.5" stroke-linecap="round"/>
<path opacity="0.81" d="M1056.38 203.715L1124.28 271.62" stroke="#502AA0" stroke-width="3.5" stroke-linecap="round"/>
<path opacity="0.81" d="M1124.28 203.715L1192.18 271.62" stroke="#502AA0" stroke-width="3.5" stroke-linecap="round"/>
<path opacity="0.81" d="M1192.18 203.715L1260.08 271.62" stroke="#502AA0" stroke-width="3.5" stroke-linecap="round"/>
<path opacity="0.81" d="M1327.97 203.715L1260.08 271.62" stroke="#502AA0" stroke-width="3.5" stroke-linecap="round"/>
<path opacity="0.81" d="M1395.87 203.715L1327.97 271.62" stroke="#502AA0" stroke-width="3.5" stroke-linecap="round"/>
<path opacity="0.81" d="M1463.77 203.715L1395.87 271.62" stroke="#502AA0" stroke-width="3.5" stroke-linecap="round"/>
<path opacity="0.81" d="M1531.67 203.715L1463.77 271.62" stroke="#502AA0" stroke-width="3.5" stroke-linecap="round"/>
<path opacity="0.81" d="M1531.67 203.715L1599.57 271.62" stroke="#502AA0" stroke-width="3.5" stroke-linecap="round"/>
<path opacity="0.81" d="M1667.47 203.715L1599.57 271.62" stroke="#502AA0" stroke-width="3.5" stroke-linecap="round"/>
<path opacity="0.81" d="M1735.37 203.715L1667.47 271.62" stroke="#502AA0" stroke-width="3.5" stroke-linecap="round"/>
<path opacity="0.74" d="M37.8987 271.62L-30 339.525" stroke="#502AA0" stroke-width="3.5" stroke-linecap="round"/>
<path opacity="0.74" d="M37.8987 271.62L105.797 339.525" stroke="#502AA0" stroke-width="3.5" stroke-linecap="round"/>
<path opacity="0.74" d="M105.797 271.62L173.696 339.525" stroke="#502AA0" stroke-width="3.5" stroke-linecap="round"/>
<path opacity="0.74" d="M173.696 271.62L241.595 339.525" stroke="#502AA0" stroke-width="3.5" stroke-linecap="round"/>
<path opacity="0.74" d="M309.494 271.62L241.595 339.525" stroke="#502AA0" stroke-width="3.5" stroke-linecap="round"/>
<path opacity="0.74" d="M377.392 271.62L309.494 339.525" stroke="#502AA0" stroke-width="3.5" stroke-linecap="round"/>
<path opacity="0.74" d="M445.291 271.62L377.392 339.525" stroke="#502AA0" stroke-width="3.5" stroke-linecap="round"/>
<path opacity="0.74" d="M513.19 271.62L445.291 339.525" stroke="#502AA0" stroke-width="3.5" stroke-linecap="round"/>
<path opacity="0.74" d="M581.089 271.62L513.19 339.525" stroke="#502AA0" stroke-width="3.5" stroke-linecap="round"/>
<path opacity="0.74" d="M581.089 271.62L648.987 339.525" stroke="#502AA0" stroke-width="3.5" stroke-linecap="round"/>
<path opacity="0.74" d="M716.886 271.62L648.987 339.525" stroke="#502AA0" stroke-width="3.5" stroke-linecap="round"/>
<path opacity="0.74" d="M784.785 271.62L716.886 339.525" stroke="#502AA0" stroke-width="3.5" stroke-linecap="round"/>
<path opacity="0.74" d="M784.785 271.62L852.683 339.525" stroke="#502AA0" stroke-width="3.5" stroke-linecap="round"/>
<path opacity="0.74" d="M852.684 271.62L920.582 339.525" stroke="#502AA0" stroke-width="3.5" stroke-linecap="round"/>
<path opacity="0.74" d="M988.481 271.62L920.582 339.525" stroke="#502AA0" stroke-width="3.5" stroke-linecap="round"/>
<path opacity="0.74" d="M1056.38 271.62L988.481 339.525" stroke="#502AA0" stroke-width="3.5" stroke-linecap="round"/>
<path opacity="0.74" d="M1056.38 271.62L1124.28 339.525" stroke="#502AA0" stroke-width="3.5" stroke-linecap="round"/>
<path opacity="0.74" d="M1192.18 271.62L1124.28 339.525" stroke="#502AA0" stroke-width="3.5" stroke-linecap="round"/>
<path opacity="0.74" d="M1192.18 271.62L1260.08 339.525" stroke="#502AA0" stroke-width="3.5" stroke-linecap="round"/>
<path opacity="0.74" d="M1260.08 271.62L1327.97 339.525" stroke="#502AA0" stroke-width="3.5" stroke-linecap="round"/>
<path opacity="0.74" d="M1327.97 271.62L1395.87 339.525" stroke="#502AA0" stroke-width="3.5" stroke-linecap="round"/>
<path opacity="0.74" d="M1463.77 271.62L1395.87 339.525" stroke="#502AA0" stroke-width="3.5" stroke-linecap="round"/>
<path opacity="0.74" d="M1531.67 271.62L1463.77 339.525" stroke="#502AA0" stroke-width="3.5" stroke-linecap="round"/>
<path opacity="0.74" d="M1531.67 271.62L1599.57 339.525" stroke="#502AA0" stroke-width="3.5" stroke-linecap="round"/>
<path opacity="0.74" d="M1599.57 271.62L1667.47 339.525" stroke="#502AA0" stroke-width="3.5" stroke-linecap="round"/>
<path opacity="0.74" d="M1667.47 271.62L1735.37 339.525" stroke="#502AA0" stroke-width="3.5" stroke-linecap="round"/>
<path opacity="0.68" d="M-30 339.525L37.8987 407.43" stroke="#502AA0" stroke-width="3.5" stroke-linecap="round"/>
<path opacity="0.68" d="M37.8987 339.525L105.797 407.43" stroke="#502AA0" stroke-width="3.5" stroke-linecap="round"/>
<path opacity="0.68" d="M173.696 339.525L105.797 407.43" stroke="#502AA0" stroke-width="3.5" stroke-linecap="round"/>
<path opacity="0.68" d="M173.696 339.525L241.595 407.43" stroke="#502AA0" stroke-width="3.5" stroke-linecap="round"/>
<path opacity="0.68" d="M309.494 339.525L241.595 407.43" stroke="#502AA0" stroke-width="3.5" stroke-linecap="round"/>
<path opacity="0.68" d="M377.392 339.525L309.494 407.43" stroke="#502AA0" stroke-width="3.5" stroke-linecap="round"/>
<path opacity="0.68" d="M445.291 339.525L377.392 407.43" stroke="#502AA0" stroke-width="3.5" stroke-linecap="round"/>
<path opacity="0.68" d="M513.19 339.525L445.291 407.43" stroke="#502AA0" stroke-width="3.5" stroke-linecap="round"/>
<path opacity="0.68" d="M581.089 339.525L513.19 407.43" stroke="#502AA0" stroke-width="3.5" stroke-linecap="round"/>
<path opacity="0.68" d="M581.089 339.525L648.987 407.43" stroke="#502AA0" stroke-width="3.5" stroke-linecap="round"/>
<path opacity="0.68" d="M716.886 339.525L648.987 407.43" stroke="#502AA0" stroke-width="3.5" stroke-linecap="round"/>
<path opacity="0.68" d="M716.886 339.525L784.785 407.43" stroke="#502AA0" stroke-width="3.5" stroke-linecap="round"/>
<path opacity="0.68" d="M852.683 339.525L784.785 407.43" stroke="#502AA0" stroke-width="3.5" stroke-linecap="round"/>
<path opacity="0.68" d="M920.582 339.525L852.684 407.43" stroke="#502AA0" stroke-width="3.5" stroke-linecap="round"/>
<path opacity="0.68" d="M920.582 339.525L988.481 407.43" stroke="#502AA0" stroke-width="3.5" stroke-linecap="round"/>
<path opacity="0.68" d="M1056.38 339.525L988.481 407.43" stroke="#502AA0" stroke-width="3.5" stroke-linecap="round"/>
<path opacity="0.68" d="M1124.28 339.525L1056.38 407.43" stroke="#502AA0" stroke-width="3.5" stroke-linecap="round"/>
<path opacity="0.68" d="M1192.18 339.525L1124.28 407.43" stroke="#502AA0" stroke-width="3.5" stroke-linecap="round"/>
<path opacity="0.68" d="M1260.08 339.525L1192.18 407.43" stroke="#502AA0" stroke-width="3.5" stroke-linecap="round"/>
<path opacity="0.68" d="M1327.97 339.525L1260.08 407.43" stroke="#502AA0" stroke-width="3.5" stroke-linecap="round"/>
<path opacity="0.68" d="M1327.97 339.525L1395.87 407.43" stroke="#502AA0" stroke-width="3.5" stroke-linecap="round"/>
<path opacity="0.68" d="M1463.77 339.525L1395.87 407.43" stroke="#502AA0" stroke-width="3.5" stroke-linecap="round"/>
<path opacity="0.68" d="M1531.67 339.525L1463.77 407.43" stroke="#502AA0" stroke-width="3.5" stroke-linecap="round"/>
<path opacity="0.68" d="M1599.57 339.525L1531.67 407.43" stroke="#502AA0" stroke-width="3.5" stroke-linecap="round"/>
<path opacity="0.68" d="M1599.57 339.525L1667.47 407.43" stroke="#502AA0" stroke-width="3.5" stroke-linecap="round"/>
<path opacity="0.68" d="M1667.47 339.525L1735.37 407.43" stroke="#502AA0" stroke-width="3.5" stroke-linecap="round"/>
<path opacity="0.62" d="M-30 407.43L37.8987 475.335" stroke="#502AA0" stroke-width="3.5" stroke-linecap="round"/>
<path opacity="0.62" d="M37.8987 407.43L105.797 475.335" stroke="#502AA0" stroke-width="3.5" stroke-linecap="round"/>
<path opacity="0.62" d="M105.797 407.43L173.696 475.335" stroke="#502AA0" stroke-width="3.5" stroke-linecap="round"/>
<path opacity="0.62" d="M173.696 407.43L241.595 475.335" stroke="#502AA0" stroke-width="3.5" stroke-linecap="round"/>
<path opacity="0.62" d="M309.494 407.43L241.595 475.335" stroke="#502AA0" stroke-width="3.5" stroke-linecap="round"/>
<path opacity="0.62" d="M377.392 407.43L309.494 475.335" stroke="#502AA0" stroke-width="3.5" stroke-linecap="round"/>
<path opacity="0.62" d="M377.392 407.43L445.291 475.335" stroke="#502AA0" stroke-width="3.5" stroke-linecap="round"/>
<path opacity="0.62" d="M445.291 407.43L513.19 475.335" stroke="#502AA0" stroke-width="3.5" stroke-linecap="round"/>
<path opacity="0.62" d="M581.089 407.43L513.19 475.335" stroke="#502AA0" stroke-width="3.5" stroke-linecap="round"/>
<path opacity="0.62" d="M648.987 407.43L581.089 475.335" stroke="#502AA0" stroke-width="3.5" stroke-linecap="round"/>
<path opacity="0.62" d="M716.886 407.43L648.987 475.335" stroke="#502AA0" stroke-width="3.5" stroke-linecap="round"/>
<path opacity="0.62" d="M716.886 407.43L784.785 475.335" stroke="#502AA0" stroke-width="3.5" stroke-linecap="round"/>
<path opacity="0.62" d="M852.683 407.43L784.785 475.335" stroke="#502AA0" stroke-width="3.5" stroke-linecap="round"/>
<path opacity="0.62" d="M920.582 407.43L852.684 475.335" stroke="#502AA0" stroke-width="3.5" stroke-linecap="round"/>
<path opacity="0.62" d="M988.481 407.43L920.582 475.335" stroke="#502AA0" stroke-width="3.5" stroke-linecap="round"/>
<path opacity="0.62" d="M988.481 407.43L1056.38 475.335" stroke="#502AA0" stroke-width="3.5" stroke-linecap="round"/>
<path opacity="0.62" d="M1124.28 407.43L1056.38 475.335" stroke="#502AA0" stroke-width="3.5" stroke-linecap="round"/>
<path opacity="0.62" d="M1124.28 407.43L1192.18 475.335" stroke="#502AA0" stroke-width="3.5" stroke-linecap="round"/>
<path opacity="0.62" d="M1192.18 407.43L1260.08 475.335" stroke="#502AA0" stroke-width="3.5" stroke-linecap="round"/>
<path opacity="0.62" d="M1260.08 407.43L1327.97 475.335" stroke="#502AA0" stroke-width="3.5" stroke-linecap="round"/>
<path opacity="0.62" d="M1327.97 407.43L1395.87 475.335" stroke="#502AA0" stroke-width="3.5" stroke-linecap="round"/>
<path opacity="0.62" d="M1463.77 407.43L1395.87 475.335" stroke="#502AA0" stroke-width="3.5" stroke-linecap="round"/>
<path opacity="0.62" d="M1463.77 407.43L1531.67 475.335" stroke="#502AA0" stroke-width="3.5" stroke-linecap="round"/>
<path opacity="0.62" d="M1531.67 407.43L1599.57 475.335" stroke="#502AA0" stroke-width="3.5" stroke-linecap="round"/>
<path opacity="0.62" d="M1599.57 407.43L1667.47 475.335" stroke="#502AA0" stroke-width="3.5" stroke-linecap="round"/>
<path opacity="0.62" d="M1667.47 407.43L1735.37 475.335" stroke="#502AA0" stroke-width="3.5" stroke-linecap="round"/>
<path opacity="0.55" d="M37.8987 475.335L-30 543.24" stroke="#502AA0" stroke-width="3.5" stroke-linecap="round"/>
<path opacity="0.55" d="M37.8987 475.335L105.797 543.24" stroke="#502AA0" stroke-width="3.5" stroke-linecap="round"/>
<path opacity="0.55" d="M173.696 475.335L105.797 543.24" stroke="#502AA0" stroke-width="3.5" stroke-linecap="round"/>
<path opacity="0.55" d="M241.595 475.335L173.696 543.24" stroke="#502AA0" stroke-width="3.5" stroke-linecap="round"/>
<path opacity="0.55" d="M309.494 475.335L241.595 543.24" stroke="#502AA0" stroke-width="3.5" stroke-linecap="round"/>
<path opacity="0.55" d="M377.392 475.335L309.494 543.24" stroke="#502AA0" stroke-width="3.5" stroke-linecap="round"/>
<path opacity="0.55" d="M377.392 475.335L445.291 543.24" stroke="#502AA0" stroke-width="3.5" stroke-linecap="round"/>
<path opacity="0.55" d="M513.19 475.335L445.291 543.24" stroke="#502AA0" stroke-width="3.5" stroke-linecap="round"/>
<path opacity="0.55" d="M581.089 475.335L513.19 543.24" stroke="#502AA0" stroke-width="3.5" stroke-linecap="round"/>
<path opacity="0.55" d="M581.089 475.335L648.987 543.24" stroke="#502AA0" stroke-width="3.5" stroke-linecap="round"/>
<path opacity="0.55" d="M716.886 475.335L648.987 543.24" stroke="#502AA0" stroke-width="3.5" stroke-linecap="round"/>
<path opacity="0.55" d="M716.886 475.335L784.785 543.24" stroke="#502AA0" stroke-width="3.5" stroke-linecap="round"/>
<path opacity="0.55" d="M852.683 475.335L784.785 543.24" stroke="#502AA0" stroke-width="3.5" stroke-linecap="round"/>
<path opacity="0.55" d="M852.684 475.335L920.582 543.24" stroke="#502AA0" stroke-width="3.5" stroke-linecap="round"/>
<path opacity="0.55" d="M920.582 475.335L988.481 543.24" stroke="#502AA0" stroke-width="3.5" stroke-linecap="round"/>
<path opacity="0.55" d="M1056.38 475.335L988.481 543.24" stroke="#502AA0" stroke-width="3.5" stroke-linecap="round"/>
<path opacity="0.55" d="M1124.28 475.335L1056.38 543.24" stroke="#502AA0" stroke-width="3.5" stroke-linecap="round"/>
<path opacity="0.55" d="M1192.18 475.335L1124.28 543.24" stroke="#502AA0" stroke-width="3.5" stroke-linecap="round"/>
<path opacity="0.55" d="M1260.08 475.335L1192.18 543.24" stroke="#502AA0" stroke-width="3.5" stroke-linecap="round"/>
<path opacity="0.55" d="M1327.97 475.335L1260.08 543.24" stroke="#502AA0" stroke-width="3.5" stroke-linecap="round"/>
<path opacity="0.55" d="M1395.87 475.335L1327.97 543.24" stroke="#502AA0" stroke-width="3.5" stroke-linecap="round"/>
<path opacity="0.55" d="M1463.77 475.335L1395.87 543.24" stroke="#502AA0" stroke-width="3.5" stroke-linecap="round"/>
<path opacity="0.55" d="M1531.67 475.335L1463.77 543.24" stroke="#502AA0" stroke-width="3.5" stroke-linecap="round"/>
<path opacity="0.55" d="M1531.67 475.335L1599.57 543.24" stroke="#502AA0" stroke-width="3.5" stroke-linecap="round"/>
<path opacity="0.55" d="M1599.57 475.335L1667.47 543.24" stroke="#502AA0" stroke-width="3.5" stroke-linecap="round"/>
<path opacity="0.55" d="M1667.47 475.335L1735.37 543.24" stroke="#502AA0" stroke-width="3.5" stroke-linecap="round"/>
<path opacity="0.49" d="M37.8987 543.24L-30 611.145" stroke="#502AA0" stroke-width="3.5" stroke-linecap="round"/>
<path opacity="0.49" d="M37.8987 543.24L105.797 611.145" stroke="#502AA0" stroke-width="3.5" stroke-linecap="round"/>
<path opacity="0.49" d="M105.797 543.24L173.696 611.145" stroke="#502AA0" stroke-width="3.5" stroke-linecap="round"/>
<path opacity="0.49" d="M173.696 543.24L241.595 611.145" stroke="#502AA0" stroke-width="3.5" stroke-linecap="round"/>
<path opacity="0.49" d="M241.595 543.24L309.494 611.145" stroke="#502AA0" stroke-width="3.5" stroke-linecap="round"/>
<path opacity="0.49" d="M309.494 543.24L377.392 611.145" stroke="#502AA0" stroke-width="3.5" stroke-linecap="round"/>
<path opacity="0.49" d="M445.291 543.24L377.392 611.145" stroke="#502AA0" stroke-width="3.5" stroke-linecap="round"/>
<path opacity="0.49" d="M445.291 543.24L513.19 611.145" stroke="#502AA0" stroke-width="3.5" stroke-linecap="round"/>
<path opacity="0.49" d="M581.089 543.24L513.19 611.145" stroke="#502AA0" stroke-width="3.5" stroke-linecap="round"/>
<path opacity="0.49" d="M581.089 543.24L648.987 611.145" stroke="#502AA0" stroke-width="3.5" stroke-linecap="round"/>
<path opacity="0.49" d="M648.987 543.24L716.886 611.145" stroke="#502AA0" stroke-width="3.5" stroke-linecap="round"/>
<path opacity="0.49" d="M784.785 543.24L716.886 611.145" stroke="#502AA0" stroke-width="3.5" stroke-linecap="round"/>
<path opacity="0.49" d="M852.683 543.24L784.785 611.145" stroke="#502AA0" stroke-width="3.5" stroke-linecap="round"/>
<path opacity="0.49" d="M852.684 543.24L920.582 611.145" stroke="#502AA0" stroke-width="3.5" stroke-linecap="round"/>
<path opacity="0.49" d="M988.481 543.24L920.582 611.145" stroke="#502AA0" stroke-width="3.5" stroke-linecap="round"/>
<path opacity="0.49" d="M1056.38 543.24L988.481 611.145" stroke="#502AA0" stroke-width="3.5" stroke-linecap="round"/>
<path opacity="0.49" d="M1124.28 543.24L1056.38 611.145" stroke="#502AA0" stroke-width="3.5" stroke-linecap="round"/>
<path opacity="0.49" d="M1124.28 543.24L1192.18 611.145" stroke="#502AA0" stroke-width="3.5" stroke-linecap="round"/>
<path opacity="0.49" d="M1192.18 543.24L1260.08 611.145" stroke="#502AA0" stroke-width="3.5" stroke-linecap="round"/>
<path opacity="0.49" d="M1260.08 543.24L1327.97 611.145" stroke="#502AA0" stroke-width="3.5" stroke-linecap="round"/>
<path opacity="0.49" d="M1395.87 543.24L1327.97 611.145" stroke="#502AA0" stroke-width="3.5" stroke-linecap="round"/>
<path opacity="0.49" d="M1395.87 543.24L1463.77 611.145" stroke="#502AA0" stroke-width="3.5" stroke-linecap="round"/>
<path opacity="0.49" d="M1463.77 543.24L1531.67 611.145" stroke="#502AA0" stroke-width="3.5" stroke-linecap="round"/>
<path opacity="0.49" d="M1531.67 543.24L1599.57 611.145" stroke="#502AA0" stroke-width="3.5" stroke-linecap="round"/>
<path opacity="0.49" d="M1667.47 543.24L1599.57 611.145" stroke="#502AA0" stroke-width="3.5" stroke-linecap="round"/>
<path opacity="0.49" d="M1667.47 543.24L1735.37 611.145" stroke="#502AA0" stroke-width="3.5" stroke-linecap="round"/>
<path opacity="0.42" d="M-30 611.145L37.8987 679.05" stroke="#502AA0" stroke-width="3.5" stroke-linecap="round"/>
<path opacity="0.42" d="M37.8987 611.145L105.797 679.05" stroke="#502AA0" stroke-width="3.5" stroke-linecap="round"/>
<path opacity="0.42" d="M173.696 611.145L105.797 679.05" stroke="#502AA0" stroke-width="3.5" stroke-linecap="round"/>
<path opacity="0.42" d="M173.696 611.145L241.595 679.05" stroke="#502AA0" stroke-width="3.5" stroke-linecap="round"/>
<path opacity="0.42" d="M309.494 611.145L241.595 679.05" stroke="#502AA0" stroke-width="3.5" stroke-linecap="round"/>
<path opacity="0.42" d="M377.392 611.145L309.494 679.05" stroke="#502AA0" stroke-width="3.5" stroke-linecap="round"/>
<path opacity="0.42" d="M445.291 611.145L377.392 679.05" stroke="#502AA0" stroke-width="3.5" stroke-linecap="round"/>
<path opacity="0.42" d="M445.291 611.145L513.19 679.05" stroke="#502AA0" stroke-width="3.5" stroke-linecap="round"/>
<path opacity="0.42" d="M513.19 611.145L581.089 679.05" stroke="#502AA0" stroke-width="3.5" stroke-linecap="round"/>
<path opacity="0.42" d="M648.987 611.145L581.089 679.05" stroke="#502AA0" stroke-width="3.5" stroke-linecap="round"/>
<path opacity="0.42" d="M716.886 611.145L648.987 679.05" stroke="#502AA0" stroke-width="3.5" stroke-linecap="round"/>
<path opacity="0.42" d="M784.785 611.145L716.886 679.05" stroke="#502AA0" stroke-width="3.5" stroke-linecap="round"/>
<path opacity="0.42" d="M784.785 611.145L852.683 679.05" stroke="#502AA0" stroke-width="3.5" stroke-linecap="round"/>
<path opacity="0.42" d="M920.582 611.145L852.684 679.05" stroke="#502AA0" stroke-width="3.5" stroke-linecap="round"/>
<path opacity="0.42" d="M920.582 611.145L988.481 679.05" stroke="#502AA0" stroke-width="3.5" stroke-linecap="round"/>
<path opacity="0.42" d="M988.481 611.145L1056.38 679.05" stroke="#502AA0" stroke-width="3.5" stroke-linecap="round"/>
<path opacity="0.42" d="M1124.28 611.145L1056.38 679.05" stroke="#502AA0" stroke-width="3.5" stroke-linecap="round"/>
<path opacity="0.42" d="M1192.18 611.145L1124.28 679.05" stroke="#502AA0" stroke-width="3.5" stroke-linecap="round"/>
<path opacity="0.42" d="M1260.08 611.145L1192.18 679.05" stroke="#502AA0" stroke-width="3.5" stroke-linecap="round"/>
<path opacity="0.42" d="M1327.97 611.145L1260.08 679.05" stroke="#502AA0" stroke-width="3.5" stroke-linecap="round"/>
<path opacity="0.42" d="M1327.97 611.145L1395.87 679.05" stroke="#502AA0" stroke-width="3.5" stroke-linecap="round"/>
<path opacity="0.42" d="M1463.77 611.145L1395.87 679.05" stroke="#502AA0" stroke-width="3.5" stroke-linecap="round"/>
<path opacity="0.42" d="M1531.67 611.145L1463.77 679.05" stroke="#502AA0" stroke-width="3.5" stroke-linecap="round"/>
<path opacity="0.42" d="M1531.67 611.145L1599.57 679.05" stroke="#502AA0" stroke-width="3.5" stroke-linecap="round"/>
<path opacity="0.42" d="M1599.57 611.145L1667.47 679.05" stroke="#502AA0" stroke-width="3.5" stroke-linecap="round"/>
<path opacity="0.42" d="M1667.47 611.145L1735.37 679.05" stroke="#502AA0" stroke-width="3.5" stroke-linecap="round"/>
<path opacity="0.36" d="M37.8987 679.05L-30 746.955" stroke="#502AA0" stroke-width="3.5" stroke-linecap="round"/>
<path opacity="0.36" d="M105.797 679.05L37.8987 746.955" stroke="#502AA0" stroke-width="3.5" stroke-linecap="round"/>
<path opacity="0.36" d="M105.797 679.05L173.696 746.955" stroke="#502AA0" stroke-width="3.5" stroke-linecap="round"/>
<path opacity="0.36" d="M173.696 679.05L241.595 746.955" stroke="#502AA0" stroke-width="3.5" stroke-linecap="round"/>
<path opacity="0.36" d="M241.595 679.05L309.494 746.955" stroke="#502AA0" stroke-width="3.5" stroke-linecap="round"/>
<path opacity="0.36" d="M377.392 679.05L309.494 746.955" stroke="#502AA0" stroke-width="3.5" stroke-linecap="round"/>
<path opacity="0.36" d="M445.291 679.05L377.392 746.955" stroke="#502AA0" stroke-width="3.5" stroke-linecap="round"/>
<path opacity="0.36" d="M445.291 679.05L513.19 746.955" stroke="#502AA0" stroke-width="3.5" stroke-linecap="round"/>
<path opacity="0.36" d="M581.089 679.05L513.19 746.955" stroke="#502AA0" stroke-width="3.5" stroke-linecap="round"/>
<path opacity="0.36" d="M648.987 679.05L581.089 746.955" stroke="#502AA0" stroke-width="3.5" stroke-linecap="round"/>
<path opacity="0.36" d="M716.886 679.05L648.987 746.955" stroke="#502AA0" stroke-width="3.5" stroke-linecap="round"/>
<path opacity="0.36" d="M784.785 679.05L716.886 746.955" stroke="#502AA0" stroke-width="3.5" stroke-linecap="round"/>
<path opacity="0.36" d="M852.683 679.05L784.785 746.955" stroke="#502AA0" stroke-width="3.5" stroke-linecap="round"/>
<path opacity="0.36" d="M920.582 679.05L852.684 746.955" stroke="#502AA0" stroke-width="3.5" stroke-linecap="round"/>
<path opacity="0.36" d="M988.481 679.05L920.582 746.955" stroke="#502AA0" stroke-width="3.5" stroke-linecap="round"/>
<path opacity="0.36" d="M988.481 679.05L1056.38 746.955" stroke="#502AA0" stroke-width="3.5" stroke-linecap="round"/>
<path opacity="0.36" d="M1056.38 679.05L1124.28 746.955" stroke="#502AA0" stroke-width="3.5" stroke-linecap="round"/>
<path opacity="0.36" d="M1192.18 679.05L1124.28 746.955" stroke="#502AA0" stroke-width="3.5" stroke-linecap="round"/>
<path opacity="0.36" d="M1192.18 679.05L1260.08 746.955" stroke="#502AA0" stroke-width="3.5" stroke-linecap="round"/>
<path opacity="0.36" d="M1260.08 679.05L1327.97 746.955" stroke="#502AA0" stroke-width="3.5" stroke-linecap="round"/>
<path opacity="0.36" d="M1327.97 679.05L1395.87 746.955" stroke="#502AA0" stroke-width="3.5" stroke-linecap="round"/>
<path opacity="0.36" d="M1463.77 679.05L1395.87 746.955" stroke="#502AA0" stroke-width="3.5" stroke-linecap="round"/>
<path opacity="0.36" d="M1531.67 679.05L1463.77 746.955" stroke="#502AA0" stroke-width="3.5" stroke-linecap="round"/>
<path opacity="0.36" d="M1599.57 679.05L1531.67 746.955" stroke="#502AA0" stroke-width="3.5" stroke-linecap="round"/>
<path opacity="0.36" d="M1667.47 679.05L1599.57 746.955" stroke="#502AA0" stroke-width="3.5" stroke-linecap="round"/>
<path opacity="0.36" d="M1735.37 679.05L1667.47 746.955" stroke="#502AA0" stroke-width="3.5" stroke-linecap="round"/>
<path opacity="0.29" d="M-30 746.955L37.8987 814.86" stroke="#502AA0" stroke-width="3.5" stroke-linecap="round"/>
<path opacity="0.29" d="M37.8987 746.955L105.797 814.86" stroke="#502AA0" stroke-width="3.5" stroke-linecap="round"/>
<path opacity="0.29" d="M173.696 746.955L105.797 814.86" stroke="#502AA0" stroke-width="3.5" stroke-linecap="round"/>
<path opacity="0.29" d="M173.696 746.955L241.595 814.86" stroke="#502AA0" stroke-width="3.5" stroke-linecap="round"/>
<path opacity="0.29" d="M241.595 746.955L309.494 814.86" stroke="#502AA0" stroke-width="3.5" stroke-linecap="round"/>
<path opacity="0.29" d="M377.392 746.955L309.494 814.86" stroke="#502AA0" stroke-width="3.5" stroke-linecap="round"/>
<path opacity="0.29" d="M445.291 746.955L377.392 814.86" stroke="#502AA0" stroke-width="3.5" stroke-linecap="round"/>
<path opacity="0.29" d="M445.291 746.955L513.19 814.86" stroke="#502AA0" stroke-width="3.5" stroke-linecap="round"/>
<path opacity="0.29" d="M581.089 746.955L513.19 814.86" stroke="#502AA0" stroke-width="3.5" stroke-linecap="round"/>
<path opacity="0.29" d="M581.089 746.955L648.987 814.86" stroke="#502AA0" stroke-width="3.5" stroke-linecap="round"/>
<path opacity="0.29" d="M648.987 746.955L716.886 814.86" stroke="#502AA0" stroke-width="3.5" stroke-linecap="round"/>
<path opacity="0.29" d="M784.785 746.955L716.886 814.86" stroke="#502AA0" stroke-width="3.5" stroke-linecap="round"/>
<path opacity="0.29" d="M852.683 746.955L784.785 814.86" stroke="#502AA0" stroke-width="3.5" stroke-linecap="round"/>
<path opacity="0.29" d="M852.684 746.955L920.582 814.86" stroke="#502AA0" stroke-width="3.5" stroke-linecap="round"/>
<path opacity="0.29" d="M988.481 746.955L920.582 814.86" stroke="#502AA0" stroke-width="3.5" stroke-linecap="round"/>
<path opacity="0.29" d="M988.481 746.955L1056.38 814.86" stroke="#502AA0" stroke-width="3.5" stroke-linecap="round"/>
<path opacity="0.29" d="M1124.28 746.955L1056.38 814.86" stroke="#502AA0" stroke-width="3.5" stroke-linecap="round"/>
<path opacity="0.29" d="M1124.28 746.955L1192.18 814.86" stroke="#502AA0" stroke-width="3.5" stroke-linecap="round"/>
<path opacity="0.29" d="M1192.18 746.955L1260.08 814.86" stroke="#502AA0" stroke-width="3.5" stroke-linecap="round"/>
<path opacity="0.29" d="M1260.08 746.955L1327.97 814.86" stroke="#502AA0" stroke-width="3.5" stroke-linecap="round"/>
<path opacity="0.29" d="M1327.97 746.955L1395.87 814.86" stroke="#502AA0" stroke-width="3.5" stroke-linecap="round"/>
<path opacity="0.29" d="M1463.77 746.955L1395.87 814.86" stroke="#502AA0" stroke-width="3.5" stroke-linecap="round"/>
<path opacity="0.29" d="M1463.77 746.955L1531.67 814.86" stroke="#502AA0" stroke-width="3.5" stroke-linecap="round"/>
<path opacity="0.29" d="M1599.57 746.955L1531.67 814.86" stroke="#502AA0" stroke-width="3.5" stroke-linecap="round"/>
<path opacity="0.29" d="M1667.47 746.955L1599.57 814.86" stroke="#502AA0" stroke-width="3.5" stroke-linecap="round"/>
<path opacity="0.29" d="M1667.47 746.955L1735.37 814.86" stroke="#502AA0" stroke-width="3.5" stroke-linecap="round"/>
<path opacity="0.23" d="M37.8987 814.86L-30 882.765" stroke="#502AA0" stroke-width="3.5" stroke-linecap="round"/>
<path opacity="0.23" d="M105.797 814.86L37.8987 882.765" stroke="#502AA0" stroke-width="3.5" stroke-linecap="round"/>
<path opacity="0.23" d="M173.696 814.86L105.797 882.765" stroke="#502AA0" stroke-width="3.5" stroke-linecap="round"/>
<path opacity="0.23" d="M241.595 814.86L173.696 882.765" stroke="#502AA0" stroke-width="3.5" stroke-linecap="round"/>
<path opacity="0.23" d="M309.494 814.86L241.595 882.765" stroke="#502AA0" stroke-width="3.5" stroke-linecap="round"/>
<path opacity="0.23" d="M377.392 814.86L309.494 882.765" stroke="#502AA0" stroke-width="3.5" stroke-linecap="round"/>
<path opacity="0.23" d="M377.392 814.86L445.291 882.765" stroke="#502AA0" stroke-width="3.5" stroke-linecap="round"/>
<path opacity="0.23" d="M445.291 814.86L513.19 882.765" stroke="#502AA0" stroke-width="3.5" stroke-linecap="round"/>
<path opacity="0.23" d="M513.19 814.86L581.089 882.765" stroke="#502AA0" stroke-width="3.5" stroke-linecap="round"/>
<path opacity="0.23" d="M648.987 814.86L581.089 882.765" stroke="#502AA0" stroke-width="3.5" stroke-linecap="round"/>
<path opacity="0.23" d="M716.886 814.86L648.987 882.765" stroke="#502AA0" stroke-width="3.5" stroke-linecap="round"/>
<path opacity="0.23" d="M784.785 814.86L716.886 882.765" stroke="#502AA0" stroke-width="3.5" stroke-linecap="round"/>
<path opacity="0.23" d="M852.683 814.86L784.785 882.765" stroke="#502AA0" stroke-width="3.5" stroke-linecap="round"/>
<path opacity="0.23" d="M920.582 814.86L852.684 882.765" stroke="#502AA0" stroke-width="3.5" stroke-linecap="round"/>
<path opacity="0.23" d="M988.481 814.86L920.582 882.765" stroke="#502AA0" stroke-width="3.5" stroke-linecap="round"/>
<path opacity="0.23" d="M1056.38 814.86L988.481 882.765" stroke="#502AA0" stroke-width="3.5" stroke-linecap="round"/>
<path opacity="0.23" d="M1124.28 814.86L1056.38 882.765" stroke="#502AA0" stroke-width="3.5" stroke-linecap="round"/>
<path opacity="0.23" d="M1124.28 814.86L1192.18 882.765" stroke="#502AA0" stroke-width="3.5" stroke-linecap="round"/>
<path opacity="0.23" d="M1260.08 814.86L1192.18 882.765" stroke="#502AA0" stroke-width="3.5" stroke-linecap="round"/>
<path opacity="0.23" d="M1327.97 814.86L1260.08 882.765" stroke="#502AA0" stroke-width="3.5" stroke-linecap="round"/>
<path opacity="0.23" d="M1395.87 814.86L1327.97 882.765" stroke="#502AA0" stroke-width="3.5" stroke-linecap="round"/>
<path opacity="0.23" d="M1463.77 814.86L1395.87 882.765" stroke="#502AA0" stroke-width="3.5" stroke-linecap="round"/>
<path opacity="0.23" d="M1531.67 814.86L1463.77 882.765" stroke="#502AA0" stroke-width="3.5" stroke-linecap="round"/>
<path opacity="0.23" d="M1599.57 814.86L1531.67 882.765" stroke="#502AA0" stroke-width="3.5" stroke-linecap="round"/>
<path opacity="0.23" d="M1667.47 814.86L1599.57 882.765" stroke="#502AA0" stroke-width="3.5" stroke-linecap="round"/>
<path opacity="0.23" d="M1667.47 814.86L1735.37 882.765" stroke="#502AA0" stroke-width="3.5" stroke-linecap="round"/>
<path opacity="0.17" d="M-30 882.765L37.8987 950.67" stroke="#502AA0" stroke-width="3.5" stroke-linecap="round"/>
<path opacity="0.17" d="M37.8987 882.765L105.797 950.67" stroke="#502AA0" stroke-width="3.5" stroke-linecap="round"/>
<path opacity="0.17" d="M105.797 882.765L173.696 950.67" stroke="#502AA0" stroke-width="3.5" stroke-linecap="round"/>
<path opacity="0.17" d="M173.696 882.765L241.595 950.67" stroke="#502AA0" stroke-width="3.5" stroke-linecap="round"/>
<path opacity="0.17" d="M241.595 882.765L309.494 950.67" stroke="#502AA0" stroke-width="3.5" stroke-linecap="round"/>
<path opacity="0.17" d="M377.392 882.765L309.494 950.67" stroke="#502AA0" stroke-width="3.5" stroke-linecap="round"/>
<path opacity="0.17" d="M377.392 882.765L445.291 950.67" stroke="#502AA0" stroke-width="3.5" stroke-linecap="round"/>
<path opacity="0.17" d="M513.19 882.765L445.291 950.67" stroke="#502AA0" stroke-width="3.5" stroke-linecap="round"/>
<path opacity="0.17" d="M513.19 882.765L581.089 950.67" stroke="#502AA0" stroke-width="3.5" stroke-linecap="round"/>
<path opacity="0.17" d="M648.987 882.765L581.089 950.67" stroke="#502AA0" stroke-width="3.5" stroke-linecap="round"/>
<path opacity="0.17" d="M716.886 882.765L648.987 950.67" stroke="#502AA0" stroke-width="3.5" stroke-linecap="round"/>
<path opacity="0.17" d="M784.785 882.765L716.886 950.67" stroke="#502AA0" stroke-width="3.5" stroke-linecap="round"/>
<path opacity="0.17" d="M784.785 882.765L852.683 950.67" stroke="#502AA0" stroke-width="3.5" stroke-linecap="round"/>
<path opacity="0.17" d="M920.582 882.765L852.684 950.67" stroke="#502AA0" stroke-width="3.5" stroke-linecap="round"/>
<path opacity="0.17" d="M988.481 882.765L920.582 950.67" stroke="#502AA0" stroke-width="3.5" stroke-linecap="round"/>
<path opacity="0.17" d="M1056.38 882.765L988.481 950.67" stroke="#502AA0" stroke-width="3.5" stroke-linecap="round"/>
<path opacity="0.17" d="M1056.38 882.765L1124.28 950.67" stroke="#502AA0" stroke-width="3.5" stroke-linecap="round"/>
<path opacity="0.17" d="M1192.18 882.765L1124.28 950.67" stroke="#502AA0" stroke-width="3.5" stroke-linecap="round"/>
<path opacity="0.17" d="M1192.18 882.765L1260.08 950.67" stroke="#502AA0" stroke-width="3.5" stroke-linecap="round"/>
<path opacity="0.17" d="M1260.08 882.765L1327.97 950.67" stroke="#502AA0" stroke-width="3.5" stroke-linecap="round"/>
<path opacity="0.17" d="M1327.97 882.765L1395.87 950.67" stroke="#502AA0" stroke-width="3.5" stroke-linecap="round"/>
<path opacity="0.17" d="M1395.87 882.765L1463.77 950.67" stroke="#502AA0" stroke-width="3.5" stroke-linecap="round"/>
<path opacity="0.17" d="M1463.77 882.765L1531.67 950.67" stroke="#502AA0" stroke-width="3.5" stroke-linecap="round"/>
<path opacity="0.17" d="M1599.57 882.765L1531.67 950.67" stroke="#502AA0" stroke-width="3.5" stroke-linecap="round"/>
<path opacity="0.17" d="M1667.47 882.765L1599.57 950.67" stroke="#502AA0" stroke-width="3.5" stroke-linecap="round"/>
<path opacity="0.17" d="M1735.37 882.765L1667.47 950.67" stroke="#502AA0" stroke-width="3.5" stroke-linecap="round"/>
<path opacity="0.1" d="M37.8987 950.67L-30 1018.57" stroke="#502AA0" stroke-width="3.5" stroke-linecap="round"/>
<path opacity="0.1" d="M37.8987 950.67L105.797 1018.57" stroke="#502AA0" stroke-width="3.5" stroke-linecap="round"/>
<path opacity="0.1" d="M173.696 950.67L105.797 1018.57" stroke="#502AA0" stroke-width="3.5" stroke-linecap="round"/>
<path opacity="0.1" d="M241.595 950.67L173.696 1018.57" stroke="#502AA0" stroke-width="3.5" stroke-linecap="round"/>
<path opacity="0.1" d="M241.595 950.67L309.494 1018.57" stroke="#502AA0" stroke-width="3.5" stroke-linecap="round"/>
<path opacity="0.1" d="M309.494 950.67L377.392 1018.57" stroke="#502AA0" stroke-width="3.5" stroke-linecap="round"/>
<path opacity="0.1" d="M377.392 950.67L445.291 1018.57" stroke="#502AA0" stroke-width="3.5" stroke-linecap="round"/>
<path opacity="0.1" d="M445.291 950.67L513.19 1018.57" stroke="#502AA0" stroke-width="3.5" stroke-linecap="round"/>
<path opacity="0.1" d="M581.089 950.67L513.19 1018.57" stroke="#502AA0" stroke-width="3.5" stroke-linecap="round"/>
<path opacity="0.1" d="M648.987 950.67L581.089 1018.57" stroke="#502AA0" stroke-width="3.5" stroke-linecap="round"/>
<path opacity="0.1" d="M716.886 950.67L648.987 1018.57" stroke="#502AA0" stroke-width="3.5" stroke-linecap="round"/>
<path opacity="0.1" d="M784.785 950.67L716.886 1018.57" stroke="#502AA0" stroke-width="3.5" stroke-linecap="round"/>
<path opacity="0.1" d="M852.683 950.67L784.785 1018.57" stroke="#502AA0" stroke-width="3.5" stroke-linecap="round"/>
<path opacity="0.1" d="M920.582 950.67L852.684 1018.57" stroke="#502AA0" stroke-width="3.5" stroke-linecap="round"/>
<path opacity="0.1" d="M920.582 950.67L988.481 1018.57" stroke="#502AA0" stroke-width="3.5" stroke-linecap="round"/>
<path opacity="0.1" d="M988.481 950.67L1056.38 1018.57" stroke="#502AA0" stroke-width="3.5" stroke-linecap="round"/>
<path opacity="0.1" d="M1056.38 950.67L1124.28 1018.57" stroke="#502AA0" stroke-width="3.5" stroke-linecap="round"/>
<path opacity="0.1" d="M1124.28 950.67L1192.18 1018.57" stroke="#502AA0" stroke-width="3.5" stroke-linecap="round"/>
<path opacity="0.1" d="M1260.08 950.67L1192.18 1018.57" stroke="#502AA0" stroke-width="3.5" stroke-linecap="round"/>
<path opacity="0.1" d="M1327.97 950.67L1260.08 1018.57" stroke="#502AA0" stroke-width="3.5" stroke-linecap="round"/>
<path opacity="0.1" d="M1327.97 950.67L1395.87 1018.57" stroke="#502AA0" stroke-width="3.5" stroke-linecap="round"/>
<path opacity="0.1" d="M1463.77 950.67L1395.87 1018.57" stroke="#502AA0" stroke-width="3.5" stroke-linecap="round"/>
<path opacity="0.1" d="M1463.77 950.67L1531.67 1018.57" stroke="#502AA0" stroke-width="3.5" stroke-linecap="round"/>
<path opacity="0.1" d="M1599.57 950.67L1531.67 1018.57" stroke="#502AA0" stroke-width="3.5" stroke-linecap="round"/>
<path opacity="0.1" d="M1599.57 950.67L1667.47 1018.57" stroke="#502AA0" stroke-width="3.5" stroke-linecap="round"/>
<path opacity="0.1" d="M1667.47 950.67L1735.37 1018.57" stroke="#502AA0" stroke-width="3.5" stroke-linecap="round"/>
</g>
<defs>
<clipPath id="clip0_141_412">
<rect width="1788" height="1006" fill="white" transform="translate(-30)"/>
</clipPath>
</defs>
</svg>
