<svg width="20" height="19" viewBox="0 0 20 19" fill="none" xmlns="http://www.w3.org/2000/svg">
<path d="M15.003 0L18.546 0.00300002L18.548 3.526L13.081 8.992L15.909 11.821L17.324 10.407L18.738 11.821L16.264 14.296L19.092 17.125L17.678 18.539L14.849 15.71L12.374 18.185L10.96 16.771L12.374 15.356L9.545 12.528L6.717 15.356L8.132 16.771L6.718 18.185L4.243 15.71L1.414 18.539L0 17.125L2.829 14.295L0.354 11.821L1.768 10.407L3.182 11.82L6.009 8.992L0.549 3.532L0.546 0L4.092 0.00300002L9.545 5.457L15.003 0ZM7.423 10.406L4.596 13.234L5.304 13.941L8.131 11.113L7.424 10.406H7.423ZM16.547 2.001H15.83L10.96 6.87L11.666 7.577L16.547 2.698V2.001ZM2.547 2.001V2.701L13.788 13.942L14.495 13.235L3.262 2.002L2.547 2.001Z" fill="currentColor"/>
</svg>
